<?xml version="1.0" encoding="utf-8"?>
<!-- Generator: Adobe Illustrator 15.1.0, SVG Export Plug-In . SVG Version: 6.00 Build 0)  -->
<!DOCTYPE svg PUBLIC "-//W3C//DTD SVG 1.1//EN" "http://www.w3.org/Graphics/SVG/1.1/DTD/svg11.dtd">
<svg version="1.1" id="Layer_1" xmlns="http://www.w3.org/2000/svg" xmlns:xlink="http://www.w3.org/1999/xlink" x="0px" y="0px"
	 width="16.083px" height="16.042px" viewBox="0 0 16.083 16.042" enable-background="new 0 0 16.083 16.042" xml:space="preserve">
<g>
	<polygon fill="#F6881F" points="15.089,0.645 8.852,0.285 0.364,9.29 7.189,15.723 15.678,6.717 	"/>
	<g>
		<g>
			<path fill="#FFFFFF" d="M6.042,9.998l1.911-2.043C7.608,7.241,7.407,6.71,7.348,6.363C7.25,5.797,7.385,5.317,7.753,4.923
				C8.149,4.5,8.619,4.286,9.164,4.279c0.544-0.006,1.069,0.227,1.573,0.698l0.45-0.482l0.387,0.362l-0.45,0.482
				c0.51,0.477,0.774,0.971,0.793,1.479c0.015,0.479-0.181,0.935-0.586,1.368L11.29,8.23l-0.704-0.659
				c0.2-0.214,0.333-0.39,0.397-0.531c0.114-0.239,0.117-0.465,0.008-0.677c-0.096-0.181-0.219-0.342-0.372-0.485L8.873,7.748
				c0.354,0.715,0.569,1.185,0.645,1.41c0.219,0.67,0.089,1.264-0.394,1.779c-0.459,0.491-0.956,0.748-1.488,0.77
				c-0.584,0.019-1.163-0.24-1.738-0.777l-0.682,0.729l-0.387-0.362l0.682-0.729C4.917,10.013,4.62,9.454,4.614,8.889
				C4.609,8.323,4.836,7.831,5.295,7.412l0.218-0.233l0.722,0.674C5.839,8.275,5.611,8.596,5.551,8.813
				C5.445,9.197,5.608,9.592,6.042,9.998z M8.231,8.434L6.43,10.36l0.056,0.08C7.084,11,7.667,10.978,8.23,10.375
				c0.273-0.292,0.401-0.591,0.385-0.897C8.603,9.237,8.475,8.89,8.231,8.434z M8.594,7.269l1.638-1.751
				c-0.288-0.269-0.576-0.392-0.865-0.37C9.077,5.168,8.819,5.3,8.592,5.543C8.369,5.781,8.271,6.05,8.299,6.351
				C8.322,6.572,8.42,6.878,8.594,7.269z"/>
		</g>
	</g>
	<circle fill="#FFFFFF" cx="13.649" cy="2.219" r="0.505"/>
</g>
</svg>
