<?xml version="1.0" encoding="utf-8"?>
<!-- Generator: Adobe Illustrator 15.1.0, SVG Export Plug-In . SVG Version: 6.00 Build 0)  -->
<!DOCTYPE svg PUBLIC "-//W3C//DTD SVG 1.1//EN" "http://www.w3.org/Graphics/SVG/1.1/DTD/svg11.dtd">
<svg version="1.1" id="Layer_1" xmlns:sketch="http://www.bohemiancoding.com/sketch/ns"
	 xmlns="http://www.w3.org/2000/svg" xmlns:xlink="http://www.w3.org/1999/xlink" x="0px" y="0px" width="33px" height="26px"
	 viewBox="0 0 33 26" enable-background="new 0 0 33 26" xml:space="preserve">
<title>icon-contact@2x</title>
<desc>Created with Sketch.</desc>
<g id="Page-1" sketch:type="MSPage">
	<g>
		<g sketch:type="MSLayerGroup">
			<path sketch:type="MSShapeGroup" fill="#FFFFFF" d="M15.294,18.587c-2.269-0.53-3.583-1.671-2.225-3.262
				c3.31-3.876,1.582-9.46-2.891-9.563H10c-4.471,0.102-6.199,5.687-2.889,9.563c1.357,1.591,0.044,2.731-2.225,3.262
				C0.9,19.52,0,22.4,0,24.377c0,1.295,0.824,1.553,1.624,1.553h8.436h0.059h8.438c0.799,0,1.623-0.258,1.623-1.553
				C20.182,22.4,19.281,19.52,15.294,18.587L15.294,18.587z"/>
			<path sketch:type="MSShapeGroup" fill="#FFFFFF" d="M17.122,14.945c0.646-1.299,1.358-3.083,1.323-4.326
				c-0.868-1.061-1.357-2.429-1.357-3.821C17.088,2.87,20.842,0,25.044,0C29.219,0,33,2.849,33,6.798
				c0,4.111-4.463,7.95-10.587,6.425C21.301,13.92,18.85,14.625,17.122,14.945L17.122,14.945z M25.044,1.655
				c-3.483,0-6.317,2.311-6.317,5.152c0,1.496,0.637,2.438,1.532,3.366c-0.183,1.376-0.618,2.576-0.618,2.576
				s1.293-0.349,2.768-1.222c5.629,1.517,8.955-1.781,8.955-4.721C31.363,3.966,28.527,1.655,25.044,1.655L25.044,1.655z"/>
		</g>
	</g>
</g>
</svg>
