<?xml version="1.0" encoding="utf-8"?>
<!-- Generator: Adobe Illustrator 16.0.0, SVG Export Plug-In . SVG Version: 6.00 Build 0)  -->
<!DOCTYPE svg PUBLIC "-//W3C//DTD SVG 1.1//EN" "http://www.w3.org/Graphics/SVG/1.1/DTD/svg11.dtd">
<svg version="1.1" id="Layer_1" xmlns="http://www.w3.org/2000/svg" xmlns:xlink="http://www.w3.org/1999/xlink" x="0px" y="0px"
	 width="37.154px" height="48.182px" viewBox="0 0 37.154 48.182" enable-background="new 0 0 37.154 48.182" xml:space="preserve">
<g>
	<g>
		<polygon fill="#0FAB98" points="7.975,32.14 1.932,42.765 8.766,40.807 10.141,48.14 16.016,35.89 10.475,37.057 		"/>
		<polygon fill="#0FAB98" points="21.075,35.391 26.6,48.182 28.516,40.723 36.141,43.765 28.6,31.64 26.725,36.723 		"/>
		<g>
			<path fill="#F79720" d="M32.071,21.261l5.084-2.684l-5.084-2.685l3.67-4.425l-5.725-0.534l1.697-5.492l-5.492,1.696l-0.533-5.725
				l-4.426,3.671L18.578,0l-2.685,5.084l-4.426-3.671l-0.533,5.725L5.441,5.442l1.697,5.492l-5.725,0.534l3.67,4.425l-5.084,2.685
				l5.084,2.684l-3.67,4.426l5.725,0.533l-1.697,5.493l5.494-1.697l0.533,5.726l4.426-3.67l2.686,5.084l2.683-5.084l4.426,3.67
				l0.533-5.726l5.492,1.697l-1.697-5.493l5.725-0.533L32.071,21.261z M18.391,30.14c-6.42,0-11.625-5.203-11.625-11.625
				c0-6.42,5.205-11.625,11.625-11.625c6.42,0,11.625,5.205,11.625,11.625C30.016,24.937,24.811,30.14,18.391,30.14z"/>
		</g>
	</g>
</g>
</svg>
