<?xml version="1.0" encoding="utf-8"?>
<!-- Generator: Adobe Illustrator 15.1.0, SVG Export Plug-In . SVG Version: 6.00 Build 0)  -->
<!DOCTYPE svg PUBLIC "-//W3C//DTD SVG 1.1//EN" "http://www.w3.org/Graphics/SVG/1.1/DTD/svg11.dtd">
<svg version="1.1" id="Layer_1" xmlns="http://www.w3.org/2000/svg" xmlns:xlink="http://www.w3.org/1999/xlink" x="0px" y="0px"
	 width="53.976px" height="39.333px" viewBox="0 0 53.976 39.333" enable-background="new 0 0 53.976 39.333" xml:space="preserve">
<g>
	<circle fill="#FFFFFF" cx="27.477" cy="19.76" r="19.385"/>
	<g>
		<path fill="#030303" d="M21.588,12.244c1.702-0.203,6.481-0.366,5.145,6.521l1.501-0.121c-0.648-4.255,0.728-6.441,4.982-6.645
			C26.126,8.11,22.116,12.161,21.588,12.244L21.588,12.244z"/>
		<path fill="#010101" d="M28.152,17.671c0.77,2.108,3.118,3.161,5.186,2.392c2.106-0.77,3.16-3.119,2.39-5.188
			c-0.771-2.105-3.119-3.158-5.185-2.389C28.476,13.256,27.381,15.564,28.152,17.671L28.152,17.671z M27.017,16.253
			c0,2.229-1.823,4.054-4.052,4.054c-2.227,0-4.051-1.824-4.051-4.054c0-2.226,1.824-4.05,4.051-4.05
			C25.233,12.203,27.017,14.027,27.017,16.253L27.017,16.253z"/>
		<path fill="#030303" d="M35.564,13.58c0.204-0.892,0.894-1.782,0.894-1.782h-2.999c-1.701-1.094-3.728-1.663-5.996-1.663
			c-2.349,0-4.457,0.608-6.157,1.704h-2.838c0,0,0.649,0.89,0.892,1.782c-0.567,0.729-0.892,1.661-0.892,2.674
			c0,2.471,2.026,4.496,4.497,4.496c1.419,0,2.674-0.647,3.525-1.701l0.973,1.419l0.972-1.459c0.446,0.566,1.013,1.013,1.663,1.296
			c1.094,0.486,2.307,0.568,3.442,0.12c2.31-0.85,3.525-3.442,2.674-5.791C36.012,14.309,35.808,13.943,35.564,13.58z"/>
		<path fill="#FEDA80" d="M31.797,11.798c-0.486,0-0.932,0.08-1.417,0.282c-1.135,0.406-2.025,1.258-2.513,2.35
			c-0.243,0.486-0.364,1.013-0.404,1.541c-0.161-2.311-2.067-4.132-4.376-4.173c1.297-0.568,2.755-0.852,4.376-0.852
			C29.083,10.906,30.543,11.188,31.797,11.798z"/>
		<path fill="#FFFFFF" d="M23.006,19.859c-1.985,0-3.605-1.621-3.605-3.606c0-1.984,1.62-3.606,3.605-3.606s3.606,1.622,3.606,3.606
			C26.571,18.238,24.95,19.859,23.006,19.859z"/>
		<path fill="#FFFFFF" d="M33.216,19.656c-0.89,0.325-1.864,0.283-2.756-0.121c-0.85-0.404-1.538-1.135-1.862-2.025
			c-0.325-0.892-0.284-1.864,0.121-2.755c0.404-0.892,1.135-1.54,2.025-1.862c1.864-0.689,3.93,0.281,4.619,2.105
			C36.012,16.901,35.039,18.968,33.216,19.656L33.216,19.656z"/>
		<path fill="#010101" d="M22.925,13.984c-1.216,0-2.229,1.014-2.229,2.228c0,1.216,1.013,2.229,2.229,2.229
			s2.228-1.013,2.228-2.229C25.152,14.998,24.141,13.984,22.925,13.984z M22.925,17.671c-0.809,0-1.46-0.647-1.46-1.459
			c0-0.809,0.651-1.457,1.46-1.457c0.811,0,1.459,0.648,1.459,1.457C24.384,17.023,23.735,17.671,22.925,17.671z M31.961,13.984
			c-1.217,0-2.229,1.014-2.229,2.228c0,1.216,1.013,2.229,2.229,2.229c1.215,0,2.228-1.013,2.228-2.229
			C34.148,14.998,33.176,13.984,31.961,13.984z M31.961,17.671c-0.811,0-1.46-0.647-1.46-1.459c0-0.809,0.649-1.457,1.46-1.457
			s1.456,0.648,1.456,1.457C33.417,17.023,32.771,17.671,31.961,17.671z"/>
		<path fill="#A71E2F" d="M23.694,16.212c0,0.406-0.323,0.731-0.729,0.731c-0.404,0-0.729-0.325-0.729-0.731
			c0-0.403,0.324-0.729,0.729-0.729C23.33,15.483,23.694,15.809,23.694,16.212z"/>
		<path fill="#4B853E" d="M32.689,16.212c0,0.406-0.324,0.731-0.729,0.731c-0.405,0-0.73-0.325-0.73-0.731
			c0-0.403,0.325-0.729,0.73-0.729C32.365,15.483,32.689,15.809,32.689,16.212z"/>
	</g>
	<path fill="#599441" d="M41.354,32.393c0.097-0.024,0.181-0.079,0.237-0.159c1.267-1.212,2.361-2.592,3.261-4.102
		c0.092-0.192,0.292-0.304,0.509-0.288c2.752,0.01,5.503,0,8.259,0c0.115-0.016,0.237,0,0.35,0.041l-3.932,3.932l3.938,3.938
		c-0.11,0.049-0.241,0.064-0.364,0.049c-5.387,0-10.778,0-16.169,0c-0.239-0.009-0.481,0.055-0.693,0.184
		c-2.155,1.252-4.536,2.045-7.012,2.334c-4.022,0.514-8.102-0.321-11.606-2.357c-0.182-0.105-0.393-0.16-0.605-0.16
		c-5.388,0-10.777,0-16.166,0H1.012c-0.005-0.009-0.011-0.025-0.015-0.041c-0.005-0.008-0.005-0.016,0-0.023l3.924-3.882
		l-3.942-3.948c0.059-0.055,0.146-0.071,0.225-0.055c2.807,0,5.614,0,8.42,0c0.182-0.01,0.353,0.086,0.427,0.255
		c1.003,1.669,2.241,3.193,3.681,4.509c0.08,0.072,0.156,0.137,0.242,0.209c0.027,0.008,0.059,0.016,0.091,0.016
		c-0.063-0.112-0.146-0.209-0.242-0.297c-7.009-7.543-6.573-19.339,0.971-26.346c7.546-7.011,19.345-6.575,26.349,0.971
		c1.197,1.285,2.197,2.731,2.992,4.295c0.938,1.853,1.557,3.855,1.809,5.92c0.658,5.488-0.791,10.355-4.343,14.598
		c-0.064,0.074-0.121,0.161-0.183,0.227c-0.042,0.015-0.074,0.055-0.08,0.095l0,0l-0.861,0.884c0.285-0.2,0.554-0.418,0.811-0.658
		C41.329,32.496,41.356,32.45,41.354,32.393z M42.592,19.862c0.018-8.355-6.738-15.146-15.097-15.165
		c-8.354-0.017-15.144,6.742-15.163,15.099c-0.019,8.231,6.554,14.971,14.789,15.154c8.348,0.194,15.274-6.418,15.467-14.765
		c0.004-0.11,0.004-0.216,0.004-0.321V19.862z M43.912,19.826c0.097,0,0.192,0,0.289,0c0.071,0.022,0.148-0.021,0.174-0.094
		c0.003-0.025,0.003-0.049,0-0.072c0.003-0.086-0.062-0.162-0.146-0.169c-0.012,0-0.025,0-0.031,0
		c-0.193,0.009-0.386,0.015-0.577,0.019c-0.09,0-0.163,0.07-0.163,0.156s0.073,0.155,0.163,0.155
		C43.721,19.826,43.817,19.826,43.912,19.826z M27.318,3.347h0.011c0,0.108,0,0.215,0,0.323c-0.019,0.068,0.021,0.14,0.089,0.157
		c0.021,0.006,0.047,0.006,0.069,0c0.074,0.015,0.146-0.033,0.163-0.108c0.003-0.012,0.003-0.023,0.003-0.036
		c0-0.184,0-0.366,0-0.549c0-0.125-0.007-0.2-0.156-0.205c-0.151,0-0.181,0.071-0.173,0.197C27.323,3.199,27.318,3.272,27.318,3.347
		z M26.921,36.686c0.028,0.008,0.055,0.022,0.083,0.022c0.215,0.018,0.218,0.018,0.223-0.185c0-0.184,0-0.369,0.016-0.545
		c0.009-0.072-0.04-0.146-0.113-0.16c-0.017,0-0.031,0-0.044,0c-0.071-0.016-0.142,0.031-0.157,0.096
		c-0.007,0.024-0.007,0.04,0,0.064C26.92,36.211,26.921,36.443,26.921,36.686z M11.15,15.741c-0.099-0.011-0.111,0.067-0.129,0.14
		c-0.015,0.073-0.039,0.158,0.068,0.18c0.227,0.053,0.454,0.113,0.683,0.156c0.108,0.02,0.103-0.092,0.124-0.156
		c0.032-0.046,0.021-0.109-0.024-0.141c-0.009-0.008-0.023-0.016-0.039-0.017L11.15,15.741z M11.081,19.05v0.015
		c0.085,0,0.171,0,0.259,0c0.119,0,0.132-0.078,0.138-0.171c0.021-0.062-0.012-0.126-0.073-0.142
		c-0.015-0.006-0.03-0.008-0.046-0.006c-0.204-0.012-0.407-0.03-0.61-0.051c-0.14-0.014-0.157,0.072-0.168,0.178
		s0.044,0.158,0.147,0.158c0.104,0,0.233,0.019,0.354,0.025V19.05z M11.081,16.49c-0.186-0.016-0.186-0.006-0.218,0.145
		c-0.034,0.059-0.014,0.135,0.046,0.17c0.02,0.008,0.041,0.016,0.063,0.016c0.198,0.032,0.399,0.062,0.596,0.104
		c0.119,0.025,0.148-0.027,0.167-0.129c0.019-0.1,0.016-0.156-0.104-0.182c-0.189-0.035-0.393-0.082-0.55-0.113V16.49z
		 M43.13,23.783c-0.145-0.015-0.137-0.014-0.184,0.123c-0.033,0.057-0.018,0.131,0.039,0.165c0.017,0.009,0.04,0.017,0.06,0.018
		c0.198,0.054,0.391,0.102,0.583,0.157c0.137,0.035,0.16-0.042,0.191-0.146c0.029-0.061,0-0.134-0.055-0.163
		c-0.02-0.011-0.04-0.015-0.062-0.015L43.13,23.783z M10.863,21.274c0.154-0.019,0.311-0.038,0.468-0.051
		c0.107,0,0.183-0.022,0.171-0.157c0.006-0.085-0.061-0.16-0.146-0.166c-0.022-0.001-0.047,0.003-0.067,0.012
		c-0.169,0.019-0.338,0.027-0.506,0.043c-0.169,0.017-0.195,0.055-0.171,0.217C10.634,21.338,10.775,21.256,10.863,21.274z
		 M23.372,4.219l-0.165-0.636c-0.023-0.099-0.087-0.102-0.17-0.077c-0.083,0.026-0.179,0.039-0.146,0.157
		c0.06,0.216,0.123,0.428,0.183,0.644c0.03,0.107,0.104,0.078,0.176,0.062c0.073-0.016,0.149-0.025,0.123-0.139V4.219z
		 M40.427,30.62c0-0.009-0.007-0.024-0.012-0.032c-0.196-0.15-0.39-0.33-0.591-0.48c-0.083-0.066-0.121,0.047-0.172,0.095
		c-0.044,0.033-0.048,0.097-0.017,0.136c0.005,0.008,0.017,0.018,0.029,0.024l0.504,0.435c0.034,0.04,0.091,0.048,0.128,0.016
		c0-0.008,0.009-0.008,0.009-0.016c0.063-0.039,0.101-0.097,0.121-0.168V30.62z M16.571,32.715c0.056,0.102,0.146,0.176,0.251,0.207
		c0.157-0.185,0.299-0.377,0.46-0.563c0.081-0.088,0.037-0.143-0.034-0.207c-0.075-0.057-0.137-0.09-0.214,0
		C16.884,32.354,16.725,32.536,16.571,32.715z M36.857,33.836c0.297-0.135,0.297-0.144,0.136-0.369
		c-0.089-0.135-0.185-0.265-0.272-0.393c-0.025-0.063-0.088-0.104-0.151-0.08c-0.021,0.008-0.041,0.017-0.053,0.033
		c-0.077,0.031-0.109,0.111-0.085,0.184c0.008,0.016,0.016,0.032,0.033,0.049C36.6,33.451,36.729,33.645,36.857,33.836z
		 M19.505,33.732c-0.045,0.008-0.081,0.031-0.103,0.063c-0.109,0.201-0.222,0.394-0.333,0.586c-0.058,0.096,0.019,0.129,0.083,0.161
		c0.066,0.039,0.146,0.096,0.209-0.016c0.102-0.192,0.209-0.371,0.314-0.563c0.03-0.088-0.02-0.192-0.112-0.225
		C19.544,33.732,19.523,33.732,19.505,33.732z M34.754,34.094c-0.095,0-0.176,0.072-0.18,0.167c0,0.032,0.01,0.064,0.025,0.09
		c0.08,0.177,0.171,0.344,0.252,0.515c0.057,0.127,0.128,0.103,0.225,0.055c0.069-0.018,0.113-0.08,0.097-0.146
		c-0.005-0.022-0.013-0.039-0.024-0.056c-0.097-0.176-0.184-0.361-0.281-0.537C34.859,34.133,34.811,34.094,34.754,34.094
		L34.754,34.094z M21.98,35.811c0.056,0.008,0.108-0.033,0.117-0.089c0.068-0.192,0.13-0.385,0.196-0.576
		c0.036-0.064,0.017-0.137-0.046-0.178c-0.016-0.007-0.032-0.017-0.051-0.017c-0.096-0.031-0.158-0.031-0.202,0.08
		c-0.065,0.184-0.136,0.361-0.195,0.547c-0.04,0.08-0.006,0.176,0.079,0.216C21.91,35.811,21.944,35.818,21.98,35.811L21.98,35.811z
		 M11.275,17.617v-0.012c0.041,0.007,0.083,0.012,0.127,0.021c0.121,0.035,0.195,0.021,0.219-0.13
		c0.022-0.154-0.054-0.157-0.155-0.179l-0.505-0.084c-0.104-0.016-0.205-0.045-0.224,0.123c-0.03,0.076,0.006,0.162,0.084,0.193
		c0.021,0.006,0.047,0.011,0.072,0.006C11.025,17.564,11.15,17.592,11.275,17.617z M11.355,18.349c0.098,0.023,0.168,0,0.178-0.112
		c0.007-0.111,0.012-0.188-0.13-0.197c-0.201-0.014-0.401-0.04-0.603-0.064c-0.071-0.016-0.14,0.033-0.153,0.102
		c-0.004,0.015-0.004,0.029-0.002,0.041c-0.028,0.073,0.005,0.152,0.078,0.181c0.021,0.011,0.044,0.013,0.065,0.011
		c0.183,0.002,0.376,0.02,0.566,0.035V18.349z M43.745,20.958c-0.021,0-0.097,0-0.17,0c-0.067-0.019-0.136,0.021-0.155,0.088
		c0,0.019-0.004,0.038,0,0.054c-0.025,0.072,0.016,0.147,0.088,0.169c0.016,0.004,0.026,0.006,0.038,0.006
		c0.192,0.013,0.383,0.03,0.571,0.049c0.108,0.015,0.188,0,0.199-0.132c0.024-0.081-0.019-0.17-0.104-0.196
		c-0.02-0.007-0.044-0.007-0.063-0.007c-0.12-0.007-0.237-0.022-0.411-0.039L43.745,20.958z M10.814,22.022l0.663-0.091
		c0.056,0.005,0.1-0.036,0.104-0.091c0.002-0.01,0-0.023-0.005-0.035c-0.017-0.079,0-0.192-0.124-0.185
		c-0.223,0.017-0.443,0.051-0.664,0.074c-0.121,0.016-0.112,0.104-0.103,0.191C10.697,21.975,10.714,22.036,10.814,22.022z
		 M11.063,23.498c0.229-0.053,0.458-0.1,0.683-0.156c0.116-0.029,0.055-0.118,0.051-0.185c-0.007-0.067-0.028-0.137-0.115-0.12
		c-0.232,0.044-0.461,0.09-0.69,0.144c-0.101,0.022-0.086,0.098-0.062,0.177c0.022,0.079,0.021,0.156,0.136,0.144L11.063,23.498z
		 M11.813,23.742c-0.216,0.056-0.43,0.113-0.647,0.166c-0.106,0.028-0.095,0.102-0.069,0.178c0.024,0.069,0.034,0.175,0.155,0.135
		c0.203-0.057,0.407-0.112,0.614-0.168c0.064-0.002,0.11-0.057,0.107-0.123c-0.003-0.011-0.005-0.021-0.009-0.033
		c-0.015-0.084-0.025-0.178-0.146-0.154H11.813z M33.117,35.674c-0.079-0.225-0.155-0.459-0.251-0.689
		c-0.036-0.088-0.133-0.033-0.2-0.017c-0.058,0.007-0.102,0.063-0.092,0.121c0,0.008,0.006,0.016,0.006,0.031
		c0.072,0.208,0.145,0.425,0.218,0.634c0.017,0.057,0.072,0.089,0.125,0.079c0.012-0.008,0.023-0.015,0.036-0.022
		C33.038,35.811,33.103,35.754,33.117,35.674z M22.683,36.043c0.062,0.008,0.12-0.033,0.13-0.096c0,0,0-0.009,0.002-0.018
		c0.056-0.191,0.101-0.393,0.164-0.577c0.033-0.063,0.01-0.144-0.052-0.177c-0.017-0.008-0.034-0.008-0.053-0.008
		c-0.09-0.033-0.155-0.033-0.195,0.089c-0.051,0.177-0.118,0.36-0.171,0.546c-0.047,0.079-0.019,0.176,0.061,0.225
		C22.604,36.043,22.645,36.051,22.683,36.043z M28.764,3.62c0.002,0.033,0.002,0.067,0,0.099c-0.021,0.14,0.071,0.157,0.176,0.17
		c0.103,0.008,0.14-0.065,0.146-0.158c0.016-0.183,0.033-0.363,0.059-0.543c0.029-0.07-0.002-0.149-0.072-0.179
		C29.051,3,29.023,2.996,28.998,3c-0.117,0-0.182,0.012-0.184,0.147C28.81,3.283,28.782,3.441,28.764,3.62z M20.689,5.227
		c-0.104-0.214-0.214-0.456-0.349-0.685c-0.038-0.061-0.133,0.021-0.196,0.047c-0.047,0.011-0.078,0.056-0.066,0.102
		c0.001,0.007,0.003,0.016,0.01,0.024c0.103,0.212,0.201,0.423,0.313,0.626c0.023,0.05,0.086,0.069,0.136,0.044
		c0.006-0.003,0.014-0.007,0.021-0.012C20.629,5.361,20.685,5.299,20.689,5.227z M37.549,32.295
		c0.135,0.169,0.279,0.346,0.412,0.521c0.071,0.09,0.132,0.154,0.252,0.058c0.125-0.104,0.09-0.169,0-0.265
		c-0.089-0.088-0.191-0.225-0.288-0.338C37.763,32.079,37.763,32.079,37.549,32.295L37.549,32.295z M11.687,25.658
		c0.217-0.08,0.447-0.156,0.673-0.258c0.105-0.044,0.033-0.125,0.02-0.191c-0.015-0.066-0.047-0.122-0.13-0.094
		c-0.223,0.074-0.442,0.156-0.661,0.234c-0.104,0.039-0.059,0.124-0.037,0.191c0,0.064,0.055,0.119,0.121,0.119
		C11.677,25.66,11.683,25.658,11.687,25.658z M38.869,32.256c-0.003-0.016-0.006-0.022-0.015-0.039
		c-0.155-0.178-0.325-0.36-0.496-0.537c-0.069-0.072-0.13,0-0.186,0.047c-0.057,0.056-0.093,0.096-0.031,0.16
		c0.152,0.176,0.307,0.354,0.464,0.522c0.033,0.041,0.085,0.047,0.12,0.023c0.009-0.007,0.017-0.016,0.017-0.023
		C38.807,32.376,38.854,32.32,38.869,32.256L38.869,32.256z M15.547,9.097c-0.016-0.054-0.049-0.098-0.094-0.129
		c-0.128-0.116-0.257-0.227-0.378-0.344c-0.085-0.075-0.148-0.144-0.255-0.016c-0.066,0.057-0.073,0.155-0.018,0.222
		c0.012,0.013,0.028,0.024,0.045,0.035c0.156,0.119,0.291,0.249,0.434,0.376c0.03,0.045,0.092,0.058,0.137,0.029h0.003
		C15.483,9.229,15.526,9.167,15.547,9.097z M14.242,28.91c-0.196,0.138-0.396,0.273-0.599,0.41
		c-0.104,0.063-0.081,0.129-0.022,0.208c0.059,0.073,0.103,0.136,0.202,0.063c0.14-0.104,0.277-0.2,0.414-0.296
		C14.445,29.137,14.445,29.137,14.242,28.91z M26.917,3.397H26.9c0-0.105,0-0.215,0-0.321c0-0.109-0.072-0.135-0.17-0.133
		c-0.094,0.003-0.167,0.02-0.156,0.141c0.015,0.203,0.026,0.406,0.035,0.611c-0.014,0.071,0.032,0.141,0.104,0.155
		c0.018,0.004,0.036,0.004,0.053,0c0.073,0.016,0.14-0.029,0.155-0.101c0.005-0.018,0.005-0.039,0-0.055
		C26.915,3.589,26.917,3.494,26.917,3.397L26.917,3.397z M42.425,25.824c-0.116-0.025-0.129,0.053-0.159,0.104
		c-0.031,0.051-0.058,0.14,0.011,0.171c0.22,0.105,0.444,0.201,0.673,0.287c0.101,0.039,0.117-0.06,0.145-0.128
		c0.025-0.068,0.065-0.123-0.021-0.156C42.85,25.996,42.626,25.91,42.425,25.824z M42.088,26.471
		c-0.068,0.029-0.12,0.094-0.129,0.171c-0.041,0.072,0.009,0.112,0.072,0.144c0.185,0.081,0.373,0.161,0.549,0.259
		c0.129,0.069,0.166,0.015,0.213-0.091c0.049-0.104,0.049-0.16-0.063-0.199c-0.186-0.081-0.369-0.168-0.555-0.25
		C42.147,26.491,42.112,26.481,42.088,26.471L42.088,26.471z M43.086,13.658c-0.2,0.079-0.429,0.166-0.652,0.263
		c-0.081,0.036-0.05,0.104-0.021,0.156c0.027,0.051,0.04,0.155,0.157,0.114c0.216-0.08,0.441-0.155,0.653-0.244
		c0.077-0.031,0.071-0.094,0.035-0.156c-0.031-0.062-0.04-0.145-0.176-0.133H43.086z M12.603,27.707
		c0.208-0.111,0.434-0.232,0.649-0.36c0.064-0.04,0.012-0.12-0.016-0.177c-0.028-0.057-0.075-0.111-0.146-0.07
		c-0.212,0.095-0.418,0.207-0.628,0.312c-0.078,0.04-0.057,0.104-0.023,0.153C12.471,27.61,12.481,27.724,12.603,27.707z
		 M32.409,35.891c-0.073-0.217-0.141-0.449-0.212-0.665c-0.041-0.105-0.121-0.064-0.19-0.04c-0.067,0.023-0.131,0.029-0.107,0.127
		c0.064,0.225,0.124,0.449,0.192,0.674c0.033,0.097,0.113,0.08,0.186,0.049C32.344,36.004,32.429,36.01,32.409,35.891z
		 M34.895,5.623c0.271,0.157,0.271,0.157,0.391-0.059c0.08-0.141,0.152-0.282,0.231-0.424c0.048-0.049,0.048-0.128,0-0.179
		c-0.015-0.014-0.03-0.023-0.048-0.031c-0.1-0.054-0.176-0.075-0.24,0.046c-0.111,0.211-0.22,0.419-0.338,0.646H34.895z
		 M20.969,34.582c0.03-0.144-0.067-0.144-0.125-0.176c-0.042-0.033-0.104-0.033-0.139,0.008c-0.009,0.016-0.014,0.024-0.019,0.032
		c-0.093,0.208-0.188,0.409-0.286,0.61c-0.046,0.096,0.011,0.137,0.088,0.169c0.075,0.022,0.146,0.097,0.194,0
		C20.787,35.009,20.877,34.774,20.969,34.582L20.969,34.582z M42.139,28.205c-0.003-0.063-0.044-0.111-0.101-0.127
		c-0.167-0.098-0.339-0.186-0.501-0.289c-0.115-0.073-0.163-0.033-0.224,0.072c-0.044,0.047-0.044,0.127,0.007,0.167
		c0.013,0.017,0.033,0.024,0.054,0.033c0.169,0.097,0.327,0.192,0.493,0.288c0.051,0.033,0.115,0.088,0.171,0.023
		c0.041-0.048,0.074-0.111,0.098-0.168H42.139z M14.014,28.549c-0.142-0.257-0.142-0.257-0.361-0.119
		c-0.148,0.089-0.288,0.184-0.437,0.272c-0.091,0.056-0.076,0.112-0.022,0.186c0.056,0.071,0.073,0.175,0.188,0.095
		C13.604,28.855,13.813,28.71,14.014,28.549z M37.467,6.243c-0.24-0.223-0.24-0.223-0.401,0c-0.097,0.127-0.181,0.264-0.28,0.389
		c-0.049,0.044-0.056,0.122-0.019,0.171c0.019,0.017,0.035,0.028,0.054,0.036c0.081,0.057,0.146,0.09,0.214-0.009
		C37.178,6.632,37.323,6.438,37.467,6.243z M12.588,11.837c0.231,0.123,0.448,0.235,0.661,0.354
		c0.115,0.064,0.147-0.008,0.194-0.086c0.044-0.042,0.046-0.114,0.002-0.159c-0.011-0.011-0.022-0.021-0.036-0.024
		c-0.157-0.082-0.298-0.169-0.446-0.253c-0.233-0.123-0.233-0.123-0.38,0.169H12.588z M43.572,15.074
		c-0.199,0.061-0.438,0.13-0.666,0.207c-0.089,0.027-0.049,0.104-0.029,0.157c0.021,0.052,0.036,0.155,0.146,0.12
		c0.212-0.06,0.429-0.114,0.645-0.174c0.065-0.016,0.104-0.078,0.089-0.141c-0.005-0.012-0.008-0.025-0.018-0.035
		c-0.002-0.081-0.067-0.143-0.146-0.14c-0.012,0-0.024,0.003-0.036,0.005H43.572z M33.505,4.137c0.022-0.113-0.069-0.123-0.13-0.156
		c-0.063-0.032-0.144-0.052-0.185,0.05c-0.073,0.209-0.157,0.416-0.225,0.625c-0.031,0.093,0.025,0.135,0.105,0.157
		c0.08,0.023,0.144,0.058,0.18-0.042C33.336,4.569,33.424,4.35,33.505,4.137z M41.822,10.938c-0.217,0.135-0.425,0.268-0.626,0.389
		c-0.112,0.066-0.075,0.129-0.032,0.208c0.017,0.067,0.09,0.104,0.153,0.087c0.019-0.004,0.036-0.015,0.053-0.029
		c0.173-0.108,0.344-0.211,0.52-0.313c0.062-0.018,0.101-0.083,0.081-0.147c-0.008-0.019-0.02-0.04-0.035-0.054L41.822,10.938z
		 M43.458,24.986c0.076,0.004,0.145-0.053,0.145-0.127c0-0.006,0.005-0.009,0-0.014c0.025-0.076,0.033-0.156-0.063-0.18
		l-0.642-0.191c-0.104-0.035-0.126,0.038-0.144,0.113c-0.018,0.078-0.064,0.146,0.045,0.182L43.458,24.986z M21.742,4.847
		c0.294-0.088,0.294-0.088,0.219-0.313c-0.053-0.157-0.115-0.303-0.157-0.454c-0.036-0.114-0.084-0.159-0.212-0.107
		c-0.078,0.013-0.135,0.085-0.12,0.165c0.001,0.02,0.009,0.04,0.02,0.056C21.569,4.403,21.649,4.611,21.742,4.847z M37.729,33.211
		c-0.145-0.184-0.295-0.377-0.438-0.57c-0.068-0.096-0.128-0.088-0.208-0.016c-0.069,0.025-0.097,0.104-0.073,0.169
		c0.009,0.017,0.017,0.022,0.032,0.04c0.146,0.193,0.29,0.385,0.434,0.578C37.579,33.38,37.667,33.307,37.729,33.211z
		 M40.889,11.026c0.013-0.002,0.023-0.005,0.034-0.011c0.205-0.132,0.419-0.257,0.611-0.402c0.087-0.062,0-0.136-0.028-0.194
		c-0.033-0.062-0.084-0.122-0.181-0.058c-0.177,0.132-0.364,0.254-0.553,0.382c-0.04,0.019-0.061,0.066-0.04,0.11
		c0,0.007,0.008,0.015,0.012,0.021C40.762,10.946,40.82,11.003,40.889,11.026z M22.686,4.439c-0.062-0.203-0.129-0.408-0.186-0.615
		c-0.006-0.072-0.071-0.125-0.145-0.116c-0.018,0.002-0.031,0.009-0.045,0.017c-0.081,0.001-0.145,0.068-0.142,0.148
		c0.002,0.022,0.009,0.042,0.018,0.062c0.065,0.192,0.128,0.386,0.192,0.58c0.011,0.058,0.067,0.1,0.126,0.089
		c0.02-0.001,0.035-0.008,0.05-0.02C22.622,4.554,22.706,4.55,22.686,4.439z M24.073,4.057c-0.046-0.206-0.098-0.413-0.136-0.625
		c-0.024-0.126-0.1-0.113-0.188-0.099c-0.09,0.014-0.167,0.048-0.14,0.157c0.05,0.207,0.104,0.417,0.155,0.625
		c0.022,0.082,0.065,0.134,0.158,0.097C24.017,4.173,24.104,4.192,24.073,4.057z M17.085,7.584c-0.005-0.02-0.013-0.04-0.026-0.057
		c-0.155-0.179-0.299-0.362-0.455-0.535c-0.079-0.085-0.132,0-0.185,0.044c-0.055,0.047-0.117,0.101-0.046,0.183l0.443,0.501
		c0.021,0.044,0.074,0.062,0.118,0.039c0.006,0,0.012-0.006,0.018-0.012C17.019,7.717,17.066,7.656,17.085,7.584z M24.781,3.94
		c-0.039-0.245-0.074-0.446-0.104-0.648c-0.02-0.115-0.093-0.122-0.191-0.101c-0.1,0.021-0.156,0.034-0.135,0.155
		c0.042,0.202,0.071,0.401,0.108,0.603c0.004,0.069,0.061,0.129,0.132,0.126c0.017,0,0.034-0.005,0.054-0.013
		C24.742,4.046,24.797,4.005,24.781,3.94z M29.886,3.199c0.009-0.033,0-0.113-0.123-0.118c-0.086,0-0.19-0.036-0.205,0.091
		c-0.03,0.223-0.059,0.448-0.081,0.671c-0.008,0.103,0.072,0.116,0.157,0.127c0.06,0.02,0.131-0.012,0.152-0.075
		c0.003-0.009,0.003-0.017,0.003-0.027c0.028-0.204,0.057-0.405,0.097-0.672V3.199z M43.41,22.377
		c-0.119-0.03-0.155,0.06-0.176,0.158c-0.017,0.096,0.053,0.145,0.145,0.155c0.186,0.027,0.359,0.054,0.537,0.095
		c0.113,0.023,0.192,0.023,0.211-0.116c0.014-0.108,0-0.187-0.131-0.205c-0.192-0.021-0.381-0.056-0.586-0.089V22.377z
		 M11.91,15.525c0.134,0.021,0.139-0.063,0.157-0.129c0.034-0.05,0.023-0.12-0.026-0.155c-0.012-0.009-0.027-0.017-0.043-0.02
		c-0.214-0.063-0.426-0.13-0.641-0.19c-0.101-0.028-0.133,0.047-0.147,0.122c-0.016,0.073-0.056,0.155,0.048,0.188
		C11.488,15.41,11.715,15.469,11.91,15.525z M41.591,29.039c0.067-0.032,0.12-0.088,0.144-0.16c0.023-0.033,0.017-0.088-0.021-0.121
		c-0.003,0-0.013-0.009-0.019-0.009c-0.197-0.119-0.395-0.255-0.596-0.366c-0.092-0.058-0.123,0.039-0.164,0.097
		c-0.034,0.063-0.068,0.119,0,0.161c0.197,0.126,0.39,0.255,0.587,0.383C41.543,29.032,41.565,29.039,41.591,29.039z M13.631,27.908
		c-0.002-0.104-0.082-0.177-0.181-0.177c-0.023,0-0.047,0.009-0.068,0.017c-0.157,0.08-0.314,0.177-0.469,0.265
		c-0.103,0.055-0.186,0.096-0.103,0.241c0.034,0.08,0.128,0.119,0.206,0.08c0.02,0,0.035-0.016,0.049-0.031
		c0.156-0.098,0.313-0.178,0.47-0.274C13.589,28.013,13.627,27.965,13.631,27.908z M44.005,16.515l-0.687,0.13
		c-0.072-0.006-0.132,0.047-0.141,0.119c0,0.02,0,0.035,0.009,0.053c-0.005,0.08,0.057,0.148,0.137,0.152
		c0.025,0,0.04-0.002,0.056-0.011c0.147-0.03,0.297-0.048,0.445-0.076C44.086,16.836,44.141,16.828,44.005,16.515z M11.91,26.381
		c0.267-0.102,0.53-0.219,0.783-0.348c-0.101-0.271-0.101-0.271-0.348-0.176l-0.324,0.131C11.754,26.09,11.754,26.09,11.91,26.381z
		 M43.492,17.679c0.217-0.028,0.392-0.061,0.576-0.075c0.136-0.014,0.136-0.1,0.13-0.206c-0.009-0.104-0.081-0.134-0.178-0.12
		l-0.542,0.076c-0.1,0.014-0.191,0.025-0.171,0.169c-0.008,0.079,0.052,0.147,0.128,0.153c0.016,0.003,0.031,0,0.049-0.004
		L43.492,17.679z M36.136,6.335c0.232,0.201,0.232,0.201,0.381-0.006c0.092-0.134,0.173-0.271,0.269-0.399
		c0.056-0.046,0.063-0.132,0.017-0.188c-0.017-0.019-0.041-0.032-0.062-0.041c-0.051-0.055-0.141-0.058-0.197-0.007
		c-0.015,0.016-0.022,0.035-0.03,0.055c-0.129,0.192-0.258,0.388-0.382,0.582L36.136,6.335z M43.732,18.383L43.732,18.383
		c0.151-0.018,0.297-0.036,0.45-0.051c0.054,0.004,0.111-0.038,0.12-0.099c0-0.021-0.005-0.04-0.014-0.057
		c-0.02-0.079,0-0.19-0.134-0.178c-0.208,0.021-0.423,0.046-0.632,0.068c-0.116,0.015-0.123,0.091-0.12,0.185
		c-0.009,0.063,0.032,0.12,0.093,0.131c0.016,0.002,0.027,0.002,0.043-0.003c0.063-0.003,0.137-0.003,0.193-0.005V18.383z
		 M17.418,7.325C17.68,7.17,17.68,7.17,17.525,6.957c-0.097-0.128-0.199-0.25-0.292-0.382c-0.023-0.067-0.099-0.103-0.167-0.078
		c-0.026,0.011-0.05,0.031-0.065,0.055c-0.049,0.033-0.082,0.081-0.097,0.136L17.418,7.325z M12.025,24.428
		c-0.217,0.067-0.451,0.133-0.682,0.213c-0.105,0.035-0.049,0.119-0.028,0.188c0.018,0.067,0.043,0.147,0.156,0.113l0.635-0.207
		c0.06-0.01,0.098-0.062,0.086-0.117c-0.001-0.015-0.005-0.026-0.013-0.039C12.177,24.495,12.109,24.428,12.025,24.428z
		 M43.291,23.085c-0.104-0.032-0.161,0.034-0.185,0.144c-0.027,0.11,0.031,0.158,0.128,0.176c0.188,0.04,0.377,0.083,0.563,0.126
		c0.071,0.029,0.155-0.005,0.185-0.075c0.012-0.023,0.015-0.045,0.012-0.068c0.027-0.063,0.003-0.139-0.062-0.17
		c-0.016-0.008-0.039-0.012-0.057-0.01C43.684,23.178,43.499,23.129,43.291,23.085z M32.806,3.839
		c-0.288-0.169-0.288-0.169-0.377,0.101c-0.047,0.158-0.085,0.313-0.144,0.456C32.228,4.539,32.301,4.552,32.4,4.6
		c0.1,0.05,0.156,0,0.18-0.097c0.082-0.225,0.161-0.446,0.234-0.667L32.806,3.839z M13.837,11.393
		c-0.007-0.044-0.037-0.079-0.077-0.094l-0.543-0.339c-0.104-0.069-0.155,0-0.196,0.079c-0.045,0.08-0.074,0.146,0.034,0.205
		c0.176,0.098,0.346,0.21,0.521,0.313c0.094,0.043,0.205,0,0.246-0.094C13.832,11.44,13.837,11.417,13.837,11.393z M21.348,4.933
		c-0.087-0.211-0.176-0.432-0.271-0.647c-0.043-0.098-0.124-0.057-0.191-0.029c-0.066,0.027-0.147,0.06-0.105,0.156
		c0.09,0.209,0.179,0.417,0.271,0.625c0.021,0.054,0.078,0.081,0.133,0.062c0.008-0.003,0.015-0.007,0.024-0.012
		c0.06-0.032,0.143-0.045,0.132-0.154H21.348z M30.904,4.029c-0.039,0.13,0.041,0.171,0.146,0.197
		c0.104,0.025,0.155-0.033,0.169-0.128c0.043-0.2,0.097-0.396,0.135-0.595c0.024-0.118-0.056-0.147-0.156-0.156
		c-0.059-0.027-0.132-0.005-0.155,0.057c-0.009,0.013-0.013,0.024-0.013,0.035c-0.045,0.192-0.084,0.391-0.129,0.59H30.904z
		 M29.093,36.043c0.013,0.128,0.037,0.288,0.05,0.447c-0.015,0.066,0.03,0.138,0.098,0.146c0.02,0.009,0.039,0.009,0.058,0
		c0.111-0.009,0.187-0.041,0.171-0.176c-0.026-0.201-0.05-0.401-0.072-0.611c0-0.063-0.057-0.119-0.124-0.119
		c-0.013,0-0.021,0-0.032,0.008c-0.096,0-0.174,0.023-0.157,0.144C29.086,35.922,29.086,35.969,29.093,36.043z M25.805,36.004
		L25.805,36.004c0-0.035,0-0.065,0-0.098c0.022-0.063-0.011-0.145-0.08-0.168c-0.015,0-0.031-0.008-0.051,0
		c-0.076-0.031-0.158,0.016-0.184,0.087c-0.006,0.024-0.009,0.042-0.006,0.065c-0.017,0.192-0.044,0.384-0.067,0.577
		c-0.018,0.136,0.068,0.152,0.176,0.169c0.106,0.015,0.146-0.041,0.155-0.146c0.007-0.166,0.032-0.325,0.051-0.486H25.805z
		 M30.211,36.357c-0.033-0.211-0.068-0.395-0.092-0.588c0.008-0.063-0.048-0.128-0.112-0.128c-0.021-0.009-0.04,0-0.057,0.008
		c-0.081-0.008-0.146,0.047-0.152,0.12c-0.004,0.024,0,0.041,0.004,0.063c0.031,0.186,0.057,0.378,0.08,0.563
		c0.016,0.12,0.075,0.161,0.196,0.128c0.12-0.023,0.16-0.063,0.129-0.166H30.211z M25.092,35.833c0.008-0.145-0.021-0.175-0.156-0.2
		c-0.137-0.022-0.141,0.063-0.158,0.161c-0.027,0.175-0.05,0.36-0.084,0.537c-0.021,0.112-0.012,0.177,0.127,0.201
		c0.141,0.017,0.185-0.017,0.201-0.137c0.009-0.192,0.033-0.368,0.063-0.563H25.092z M30.503,35.658
		c0.046,0.224,0.09,0.441,0.133,0.666c0.028,0.137,0.125,0.071,0.205,0.063c0.06,0.008,0.116-0.03,0.124-0.089
		c0.004-0.024,0-0.048-0.012-0.064c-0.044-0.207-0.088-0.424-0.133-0.624c-0.021-0.097-0.092-0.105-0.176-0.089
		c-0.086,0.023-0.157,0.023-0.148,0.137H30.503z M11.928,13.189c0.235,0.102,0.442,0.187,0.645,0.277
		c0.1,0.045,0.176,0.066,0.227-0.063c0.046-0.063,0.033-0.151-0.031-0.194c-0.017-0.014-0.037-0.021-0.056-0.024
		c-0.178-0.073-0.354-0.158-0.524-0.24c-0.05-0.041-0.127-0.035-0.171,0.015c-0.014,0.018-0.021,0.035-0.026,0.059L11.928,13.189z
		 M25.468,3.631c-0.012-0.096-0.041-0.253-0.053-0.408c-0.009-0.134-0.08-0.156-0.193-0.145c-0.066-0.011-0.13,0.038-0.141,0.106
		c-0.003,0.016-0.003,0.035,0.003,0.05c0.029,0.203,0.057,0.404,0.083,0.605c-0.002,0.074,0.055,0.132,0.13,0.134
		c0.017,0,0.033-0.001,0.049-0.007c0.074,0,0.139-0.058,0.14-0.131c0.003-0.018,0-0.031-0.004-0.043
		C25.477,3.76,25.477,3.726,25.468,3.631z M24.385,35.682c0.021-0.119-0.052-0.145-0.145-0.168
		c-0.056-0.033-0.126-0.009-0.156,0.049c-0.007,0.016-0.011,0.03-0.011,0.038c-0.048,0.21-0.093,0.427-0.136,0.626
		c-0.028,0.057-0.004,0.121,0.052,0.153c0.02,0.008,0.041,0.008,0.063,0.008c0.077,0,0.175,0.065,0.203-0.073L24.385,35.682z
		 M31.219,35.586c0.038,0.145,0.087,0.361,0.141,0.585c0.027,0.097,0.106,0.08,0.181,0.063c0.075-0.016,0.159-0.038,0.136-0.145
		c-0.052-0.216-0.109-0.432-0.161-0.648c-0.012-0.065-0.075-0.104-0.141-0.089c-0.012,0-0.025,0.009-0.036,0.009
		C31.257,35.386,31.194,35.418,31.219,35.586z M19.422,5.917c-0.016-0.033-0.035-0.071-0.054-0.107
		c-0.092-0.156-0.185-0.314-0.271-0.469c-0.053-0.097-0.099-0.148-0.221-0.078c-0.076,0.024-0.122,0.104-0.1,0.182
		c0.006,0.026,0.023,0.049,0.043,0.068c0.112,0.167,0.211,0.343,0.313,0.515c0.017,0.043,0.068,0.065,0.112,0.049
		c0.009-0.002,0.014-0.006,0.019-0.011C19.341,6.048,19.4,5.99,19.422,5.917z M33.455,34.688c-0.087-0.017-0.176,0.048-0.192,0.137
		c-0.007,0.031,0,0.072,0.017,0.104c0.063,0.184,0.136,0.361,0.204,0.539c0.013,0.063,0.071,0.111,0.142,0.103
		c0.02,0,0.036-0.007,0.052-0.017c0.101-0.048,0.173-0.08,0.115-0.207c-0.079-0.185-0.151-0.371-0.231-0.563
		C33.561,34.727,33.511,34.688,33.455,34.688z M21.409,34.671c-0.049,0.009-0.083,0.048-0.091,0.097
		c-0.076,0.184-0.156,0.378-0.232,0.561c-0.057,0.121,0.021,0.17,0.118,0.209c0.061,0.032,0.137,0.016,0.177-0.048
		c0.009-0.017,0.014-0.033,0.016-0.048c0.065-0.178,0.141-0.353,0.204-0.539c0.035-0.086-0.014-0.192-0.104-0.223
		c-0.024-0.009-0.054-0.009-0.081-0.009H21.409z M35.942,5.229c-0.124,0.213-0.244,0.425-0.369,0.635
		c-0.064,0.104-0.017,0.146,0.068,0.201c0.049,0.049,0.128,0.053,0.177,0.005c0.012-0.014,0.027-0.031,0.031-0.049
		c0.105-0.174,0.21-0.347,0.313-0.518c0.045-0.048,0.045-0.125-0.003-0.17c-0.015-0.016-0.03-0.026-0.056-0.033L35.942,5.229z
		 M25.853,3.378L25.853,3.378c0.013,0.127,0.023,0.255,0.037,0.382c-0.005,0.073,0.052,0.13,0.122,0.131
		c0.02,0.004,0.039,0,0.056-0.009c0.082-0.012,0.14-0.034,0.136-0.137c-0.016-0.202-0.028-0.404-0.037-0.604
		c0-0.135-0.082-0.152-0.194-0.144c-0.112,0.008-0.155,0.071-0.135,0.19C25.846,3.251,25.851,3.315,25.853,3.378z M19.971,34.961
		l0.329-0.65c0.058-0.113,0-0.168-0.103-0.217c-0.103-0.057-0.156,0.016-0.188,0.088c-0.07,0.137-0.139,0.265-0.206,0.4
		C19.676,34.831,19.676,34.831,19.971,34.961z M35.85,34.454c-0.012-0.032-0.026-0.063-0.043-0.088
		c-0.097-0.177-0.199-0.353-0.298-0.53c-0.019-0.063-0.087-0.104-0.151-0.081c-0.02,0.009-0.042,0.018-0.053,0.034
		c-0.085,0.047-0.132,0.096-0.076,0.201c0.104,0.184,0.209,0.367,0.313,0.553c0.029,0.056,0.066,0.096,0.125,0.064
		C35.75,34.582,35.814,34.527,35.85,34.454z M18.397,34.061c0.252,0.194,0.252,0.194,0.402-0.047c0.06-0.098,0.12-0.201,0.181-0.299
		c0.132-0.224,0.132-0.224-0.133-0.367c-0.164,0.225-0.315,0.465-0.452,0.713H18.397z M18.507,33.123
		c-0.243-0.191-0.244-0.191-0.384,0c-0.102,0.137-0.193,0.281-0.296,0.416c-0.048,0.04-0.056,0.111-0.016,0.162
		c0.009,0.007,0.023,0.023,0.038,0.023c0.051,0.057,0.117,0.08,0.188,0.088L18.507,33.123z M10.783,22.458
		c0.046,0.329,0.046,0.329,0.318,0.277c0.147-0.028,0.294-0.068,0.438-0.081c0.147-0.014,0.146-0.088,0.131-0.196
		c0.003-0.069-0.046-0.128-0.114-0.13c-0.021-0.004-0.04,0-0.062,0.012c-0.23,0.041-0.46,0.074-0.716,0.118H10.783z M30.183,3.913
		c-0.033,0.121,0.056,0.141,0.161,0.168c0.096,0.027,0.144-0.034,0.164-0.13c0.032-0.191,0.068-0.376,0.107-0.563
		c0.021-0.093,0.024-0.167-0.104-0.183c-0.124-0.019-0.201-0.035-0.226,0.128c-0.016,0.188-0.072,0.375-0.099,0.58H30.183z
		 M44.045,22.063c0.082,0.023,0.168-0.025,0.191-0.11c0.005-0.016,0.005-0.032,0.005-0.047c0.021-0.166-0.086-0.166-0.196-0.174
		c-0.186-0.02-0.361-0.039-0.546-0.061c-0.063-0.019-0.136,0.021-0.15,0.09c-0.011,0.021-0.011,0.044,0,0.063
		c-0.025,0.071,0.015,0.148,0.087,0.168c0.012,0.006,0.027,0.008,0.043,0.006c0.186,0,0.366,0.033,0.566,0.059V22.063z
		 M37.295,7.156c0.22,0.22,0.22,0.22,0.389,0.019c0.101-0.125,0.191-0.252,0.297-0.371c0.107-0.117,0.063-0.157-0.024-0.232
		c-0.049-0.058-0.137-0.067-0.193-0.02c-0.02,0.015-0.032,0.033-0.039,0.053C37.584,6.793,37.434,6.977,37.295,7.156z M37.851,7.611
		c0.21,0.223,0.21,0.225,0.387,0.03c0.136-0.156,0.265-0.301,0.409-0.469c-0.064-0.089-0.157-0.157-0.262-0.196L37.851,7.611z
		 M33.832,5.127c0.054-0.017,0.089-0.059,0.104-0.113c0.074-0.174,0.155-0.349,0.234-0.523c0.036-0.083,0-0.182-0.085-0.219
		c-0.084-0.039-0.18-0.002-0.221,0.082c-0.066,0.177-0.146,0.353-0.217,0.531c-0.031,0.097,0.024,0.201,0.122,0.232
		C33.789,5.124,33.808,5.127,33.832,5.127z M28.707,36.331L28.707,36.331c0-0.12-0.018-0.248-0.021-0.377
		c0.009-0.08-0.048-0.151-0.129-0.16c-0.021-0.008-0.038,0-0.058,0c-0.067-0.008-0.132,0.039-0.141,0.112
		c-0.002,0.016,0,0.041,0.006,0.057c0.01,0.191,0.017,0.377,0.02,0.569c-0.016,0.08,0.034,0.153,0.109,0.167c0.02,0,0.043,0,0.063,0
		c0.12-0.006,0.179-0.048,0.155-0.176C28.711,36.461,28.711,36.396,28.707,36.331z M18.001,6.888
		c0.25-0.155,0.251-0.155,0.104-0.366c-0.073-0.108-0.146-0.211-0.221-0.313c-0.164-0.227-0.172-0.227-0.376,0.025
		C17.656,6.462,17.823,6.682,18.001,6.888z M43.403,25.417c-0.226-0.079-0.45-0.156-0.673-0.247
		c-0.065-0.038-0.145-0.023-0.186,0.039c-0.008,0.012-0.012,0.027-0.016,0.042c-0.049,0.063-0.033,0.153,0.031,0.198
		c0.02,0.012,0.04,0.02,0.065,0.024c0.136,0.046,0.28,0.097,0.416,0.156C43.343,25.755,43.363,25.707,43.403,25.417z M18.813,6.317
		c-0.003-0.02-0.01-0.042-0.02-0.061c-0.124-0.198-0.249-0.397-0.379-0.591c-0.063-0.094-0.129-0.025-0.19,0.011
		c-0.057,0.039-0.142,0.072-0.074,0.17c0.122,0.187,0.246,0.374,0.371,0.562c0.026,0.042,0.063,0.086,0.128,0.047
		C18.721,6.432,18.778,6.38,18.813,6.317z M34.117,34.398c-0.1-0.008-0.182,0.064-0.188,0.16c0,0.023,0,0.049,0.007,0.073
		c0.074,0.175,0.162,0.353,0.234,0.529c0.036,0.081,0.132,0.12,0.217,0.081c0.08-0.033,0.12-0.131,0.08-0.218l0,0
		c-0.087-0.169-0.152-0.354-0.239-0.522C34.218,34.446,34.17,34.406,34.117,34.398z M17.675,32.521
		c-0.157,0.208-0.299,0.393-0.45,0.576c-0.092,0.113-0.024,0.154,0.054,0.226c0.041,0.057,0.118,0.063,0.169,0.024
		c0.019-0.016,0.033-0.032,0.04-0.048c0.093-0.137,0.19-0.257,0.284-0.386c0.157-0.217,0.157-0.217-0.097-0.4V32.521z
		 M36.508,34.086c-0.128-0.201-0.25-0.394-0.37-0.578c-0.051-0.09-0.09-0.16-0.22-0.09c-0.124,0.073-0.116,0.161-0.044,0.258
		c0.071,0.105,0.157,0.258,0.236,0.385C36.247,34.271,36.247,34.271,36.508,34.086L36.508,34.086z M40.488,9.134
		c-0.029,0.019-0.064,0.041-0.099,0.063c-0.147,0.122-0.292,0.25-0.444,0.365c-0.113,0.083-0.072,0.156,0,0.233
		c0.076,0.081,0.133,0.077,0.209,0.011c0.161-0.128,0.313-0.251,0.474-0.374c0.052-0.045,0.091-0.092,0.035-0.158
		C40.632,9.203,40.563,9.15,40.488,9.134z M43.178,16.267c0.217-0.05,0.466-0.097,0.697-0.167c0.09-0.026,0.05-0.126,0.028-0.196
		c0-0.063-0.047-0.11-0.106-0.11c-0.009,0-0.017,0.002-0.025,0.005c-0.216,0.05-0.437,0.105-0.652,0.156
		c-0.061,0.007-0.102,0.061-0.094,0.119c0,0.009,0.004,0.017,0.01,0.023C43.025,16.182,43.09,16.259,43.178,16.267L43.178,16.267
		L43.178,16.267z M14.077,11.018c0.179-0.251,0.179-0.251-0.013-0.386c-0.129-0.091-0.265-0.178-0.393-0.273
		c-0.049-0.057-0.135-0.067-0.194-0.021c-0.018,0.016-0.032,0.034-0.042,0.056c-0.057,0.052-0.059,0.14-0.008,0.197
		c0.016,0.016,0.034,0.027,0.053,0.035c0.193,0.125,0.387,0.252,0.592,0.389L14.077,11.018z M42.348,11.818
		c-0.029-0.063-0.059-0.121-0.101-0.18c-0.056-0.068-0.115-0.009-0.168,0.018c-0.167,0.091-0.328,0.186-0.499,0.278
		c-0.07,0.015-0.109,0.085-0.094,0.151c0.003,0.019,0.012,0.038,0.023,0.051c0.056,0.099,0.111,0.143,0.225,0.08
		c0.178-0.103,0.354-0.193,0.531-0.288c0.047-0.02,0.075-0.062,0.079-0.11H42.348z M38.597,8.288l0.522-0.517
		c0.098-0.089,0.032-0.146-0.033-0.21c-0.063-0.065-0.126-0.104-0.206-0.013c-0.105,0.124-0.219,0.235-0.33,0.354
		C38.353,8.113,38.353,8.113,38.597,8.288z M43.516,14.552c-0.053-0.071-0.008-0.242-0.184-0.187
		c-0.213,0.064-0.426,0.141-0.627,0.214c-0.096,0.036-0.076,0.114-0.052,0.188c0.028,0.072,0.056,0.145,0.157,0.112
		c0.212-0.07,0.424-0.137,0.634-0.207c0.052-0.011,0.087-0.061,0.075-0.111C43.52,14.556,43.516,14.554,43.516,14.552z
		 M12.306,14.643c0.005-0.043-0.027-0.082-0.069-0.087l-0.628-0.226c-0.124-0.043-0.134,0.051-0.17,0.13
		c-0.039,0.052-0.029,0.126,0.021,0.164c0.021,0.015,0.043,0.024,0.064,0.026c0.192,0.058,0.382,0.128,0.577,0.184
		c0.09,0.021,0.183-0.031,0.203-0.12C12.311,14.69,12.311,14.668,12.306,14.643z M12.558,13.977
		c-0.008-0.054-0.047-0.099-0.103-0.109c-0.186-0.073-0.376-0.143-0.561-0.227c-0.135-0.063-0.164,0.018-0.207,0.112
		c-0.041,0.051-0.031,0.127,0.021,0.168c0.017,0.013,0.037,0.022,0.061,0.024c0.19,0.064,0.377,0.146,0.567,0.212
		c0.091,0.028,0.187-0.024,0.214-0.116c0.008-0.025,0.009-0.05,0.008-0.072V13.977z M14.257,9.338
		c0.157,0.12,0.308,0.248,0.472,0.374c0.203,0.154,0.203,0.154,0.376-0.097c-0.185-0.155-0.372-0.312-0.559-0.468
		c-0.068-0.058-0.129-0.077-0.185,0.008C14.309,9.206,14.273,9.268,14.257,9.338z M42.266,13.551
		c0.242-0.086,0.48-0.189,0.705-0.316c0.067-0.039,0-0.113-0.024-0.169c-0.024-0.054-0.065-0.123-0.141-0.089
		c-0.214,0.092-0.425,0.19-0.639,0.287c-0.048,0.022-0.072,0.083-0.048,0.135c0,0.005,0.01,0.016,0.013,0.021
		C42.143,13.488,42.2,13.541,42.266,13.551z M12.236,27.049c0.245-0.096,0.484-0.223,0.706-0.36c0.055-0.047,0-0.122-0.034-0.179
		c-0.01-0.048-0.061-0.078-0.11-0.064c-0.005,0-0.011,0.002-0.015,0.002c-0.217,0.098-0.432,0.194-0.646,0.291
		c-0.044,0.016-0.066,0.07-0.051,0.111c0.004,0.008,0.008,0.017,0.014,0.024C12.112,26.953,12.166,27.019,12.236,27.049z
		 M41.807,27.124c-0.076,0.005-0.141,0.063-0.151,0.142c-0.034,0.033-0.034,0.089,0,0.121c0.007,0.008,0.015,0.008,0.022,0.016
		c0.201,0.113,0.41,0.218,0.626,0.329c0.041,0.031,0.105,0.024,0.136-0.024c0.01-0.007,0.018-0.023,0.018-0.039
		c0.023-0.064,0.123-0.137,0.032-0.193C42.252,27.338,42.02,27.235,41.807,27.124L41.807,27.124z M13.986,29.993
		c0.185,0.273,0.187,0.273,0.414,0.098c0.115-0.089,0.232-0.185,0.351-0.273c0.078-0.063,0.123-0.112,0.041-0.208
		c-0.08-0.096-0.117-0.145-0.228-0.057c-0.184,0.152-0.372,0.289-0.581,0.44H13.986z M40.744,30.299
		c0.045-0.128,0.26-0.178,0.1-0.32c-0.168-0.153-0.345-0.289-0.528-0.41c-0.09-0.071-0.138,0-0.186,0.057
		c-0.048,0.056-0.096,0.12-0.008,0.186L40.744,30.299z M16.021,32.209c0.204,0.265,0.204,0.265,0.393,0.055
		c0.085-0.096,0.172-0.191,0.254-0.287c0.168-0.194,0.168-0.194-0.087-0.369L16.021,32.209z M13.975,9.68
		c-0.057,0.043-0.104,0.094-0.138,0.157c-0.032,0.035-0.026,0.091,0.011,0.122c0.007,0.006,0.01,0.008,0.02,0.011
		c0.179,0.133,0.36,0.261,0.539,0.396c0.086,0.061,0.132,0.017,0.178-0.051c0.049-0.071,0.104-0.127,0.021-0.192
		c-0.185-0.143-0.375-0.283-0.563-0.422c-0.023-0.009-0.05-0.015-0.076-0.02L13.975,9.68z M10.972,20.524v-0.021
		c0.118,0,0.235,0,0.351,0c0.116,0,0.137-0.066,0.136-0.155c0.018-0.067-0.02-0.136-0.089-0.155
		c-0.018-0.004-0.038-0.006-0.056-0.003c-0.191,0-0.384,0.011-0.574,0c-0.083-0.019-0.169,0.038-0.184,0.124
		c-0.007,0.022-0.007,0.048,0,0.069c0,0.141,0.086,0.156,0.192,0.141C10.829,20.518,10.904,20.524,10.972,20.524z M31.787,4.408
		c0.048,0,0.084-0.031,0.089-0.072c0.063-0.215,0.128-0.432,0.184-0.648c0.032-0.118-0.047-0.139-0.136-0.163
		c-0.061-0.033-0.134-0.011-0.165,0.045c-0.004,0.013-0.007,0.022-0.013,0.035c-0.057,0.207-0.111,0.414-0.155,0.625
		c-0.005,0.094,0.063,0.178,0.155,0.185c0.018,0,0.034,0,0.05-0.003L31.787,4.408z M39.329,30.62
		c-0.245,0.192-0.245,0.192-0.058,0.376c0.12,0.113,0.25,0.225,0.369,0.347c0.085,0.087,0.145,0.048,0.21-0.025
		c0.063-0.063,0.111-0.129,0.015-0.208c-0.177-0.161-0.353-0.322-0.529-0.48L39.329,30.62z M15.763,30.779
		c-0.184-0.216-0.187-0.216-0.359-0.055c-0.174,0.153-0.313,0.28-0.472,0.426c0.215,0.247,0.215,0.247,0.417,0.056
		c0.148-0.129,0.276-0.265,0.422-0.419L15.763,30.779z M14.667,30.813c0.157-0.129,0.304-0.257,0.455-0.385
		c0.196-0.177,0.196-0.177-0.019-0.387c-0.229,0.17-0.442,0.362-0.642,0.563c0.043,0.097,0.118,0.169,0.213,0.217L14.667,30.813z
		 M39.584,9.325c0.013-0.003,0.024-0.006,0.033-0.014c0.189-0.156,0.381-0.313,0.561-0.488c0.072-0.072-0.016-0.133-0.061-0.188
		c-0.044-0.057-0.092-0.095-0.155-0.037c-0.177,0.158-0.354,0.311-0.526,0.468C39.4,9.103,39.4,9.162,39.441,9.196
		c0,0.004,0.008,0.01,0.008,0.011C39.477,9.265,39.524,9.307,39.584,9.325z M34.891,4.692c-0.031-0.069-0.096-0.115-0.167-0.128
		c-0.049-0.029-0.112-0.015-0.146,0.033c-0.004,0.01-0.007,0.023-0.012,0.034c-0.085,0.194-0.172,0.388-0.268,0.576
		c-0.041,0.048-0.033,0.115,0.016,0.152c0.016,0.01,0.031,0.018,0.049,0.021c0.074,0.035,0.152,0.09,0.211-0.023
		c0.101-0.202,0.196-0.402,0.293-0.602c0.008-0.022,0.017-0.044,0.017-0.066L34.891,4.692z M26.491,36.227h0.024
		c0-0.087,0-0.167,0-0.258c0-0.087,0-0.166-0.13-0.175c-0.075-0.024-0.157,0.017-0.182,0.097c-0.005,0.023-0.009,0.039-0.005,0.063
		c-0.011,0.192-0.02,0.386-0.035,0.578c-0.017,0.08,0.035,0.153,0.111,0.167c0.021,0.009,0.041,0.009,0.061,0
		c0.07,0.018,0.14-0.023,0.155-0.087c0.006-0.023,0.006-0.047,0-0.063C26.491,36.443,26.491,36.34,26.491,36.227z M28.057,3.407
		h-0.012c0,0.064,0,0.128,0,0.195c0,0.116-0.029,0.244,0.157,0.242c0.155,0,0.155-0.106,0.155-0.22c0-0.155,0.015-0.321,0.02-0.482
		c0-0.096,0.022-0.191-0.133-0.2c-0.079-0.032-0.169,0.01-0.199,0.092c-0.012,0.036-0.012,0.079,0.002,0.114
		c0.02,0.086,0.012,0.174,0.012,0.26H28.057z M43.916,20.242L43.916,20.242c-0.097,0-0.191,0-0.288,0c-0.094,0-0.165,0-0.165,0.131
		c0,0.129,0.021,0.186,0.158,0.188c0.18,0,0.36,0,0.545,0.02c0.079,0.022,0.168-0.029,0.191-0.111c0.005-0.021,0.005-0.04,0-0.063
		c0.018-0.077-0.041-0.149-0.116-0.16c-0.021-0.006-0.043-0.004-0.064,0.004c-0.085-0.004-0.172-0.008-0.257-0.008H43.916z
		 M41.333,29.457c0-0.04-0.022-0.08-0.063-0.097c-0.176-0.128-0.357-0.249-0.529-0.369c-0.088-0.063-0.137-0.017-0.189,0.048
		c-0.052,0.072-0.083,0.145,0.017,0.218c0.169,0.12,0.328,0.24,0.498,0.36c0.099,0.041,0.213,0,0.252-0.098
		C41.329,29.497,41.333,29.48,41.333,29.457L41.333,29.457z M40.488,10.437c0.019-0.009,0.034-0.017,0.059-0.028l0.547-0.396
		c0.096-0.066,0.039-0.13,0-0.188c-0.038-0.062-0.086-0.146-0.178-0.078c-0.192,0.139-0.376,0.283-0.562,0.428
		c-0.039,0.034-0.049,0.093-0.011,0.131c0.003,0.005,0.003,0.009,0.011,0.011C40.374,10.376,40.427,10.42,40.488,10.437z
		 M38.907,8.595c0.179,0.234,0.179,0.234,0.372,0.053c0.112-0.106,0.225-0.225,0.345-0.326c0.064-0.031,0.092-0.106,0.064-0.17
		c-0.016-0.026-0.036-0.046-0.064-0.059c-0.035-0.049-0.093-0.081-0.152-0.086L38.907,8.595z M16.039,8.565
		c-0.005-0.02-0.016-0.04-0.029-0.056c-0.167-0.165-0.333-0.334-0.506-0.496c-0.083-0.075-0.131,0.014-0.184,0.061
		c-0.054,0.032-0.074,0.103-0.043,0.156c0.009,0.014,0.016,0.025,0.029,0.034l0.468,0.445c0.04,0.04,0.09,0.074,0.139,0.028
		C15.976,8.698,16.021,8.637,16.039,8.565z M19.393,5.007c0.114,0.212,0.231,0.426,0.347,0.639c0.055,0.104,0.124,0.086,0.212,0.042
		c0.063-0.014,0.104-0.08,0.09-0.145c-0.004-0.021-0.015-0.04-0.027-0.054c-0.079-0.138-0.147-0.283-0.221-0.423
		c-0.134-0.249-0.134-0.245-0.4-0.057V5.007z M11.01,19.788h0.323c0.126,0,0.125-0.091,0.126-0.181
		c0.017-0.061-0.021-0.121-0.085-0.137c-0.013-0.004-0.027-0.004-0.043-0.002c-0.205,0-0.406,0-0.612-0.008
		c-0.135,0-0.155,0.068-0.155,0.183c-0.014,0.069,0.036,0.138,0.106,0.147c0.016,0.002,0.034,0.002,0.049-0.001
		c0.096-0.004,0.195,0,0.291,0V19.788z M23.675,35.529c0.026-0.063-0.01-0.144-0.079-0.168c-0.017-0.009-0.031-0.009-0.049-0.009
		c-0.063-0.024-0.139,0-0.164,0.065c-0.004,0.006-0.006,0.016-0.01,0.023c-0.053,0.208-0.107,0.416-0.156,0.625
		c-0.033,0.13,0.057,0.145,0.139,0.168c0.086,0.025,0.157,0.033,0.178-0.069C23.579,35.947,23.626,35.738,23.675,35.529z
		 M12.455,12.246c-0.081-0.002-0.154,0.055-0.17,0.136c-0.037,0.038-0.039,0.097-0.001,0.135c0.007,0.011,0.017,0.017,0.029,0.022
		c0.21,0.104,0.423,0.204,0.626,0.304c0.081,0.036,0.117-0.017,0.144-0.077c0.028-0.063,0.092-0.131,0.024-0.172
		C12.895,12.465,12.665,12.354,12.455,12.246z M27.98,36.396c-0.006-0.185-0.016-0.288-0.016-0.401
		c0.019-0.072-0.027-0.145-0.104-0.161c-0.02-0.008-0.047-0.008-0.068,0c-0.072-0.008-0.138,0.049-0.146,0.121
		c0,0.009,0,0.024,0.004,0.04c0,0.177,0,0.363,0,0.538c0,0.104,0,0.193,0.146,0.185c0.148,0,0.202-0.031,0.185-0.185
		C27.976,36.484,27.976,36.443,27.98,36.396z M16.072,31.109l-0.583,0.626c0.185,0.217,0.185,0.217,0.378,0.015
		c0.085-0.079,0.167-0.168,0.247-0.248C16.293,31.311,16.293,31.311,16.072,31.109z M42.545,12.258l-0.609,0.305
		c-0.092,0.045-0.169,0.086-0.097,0.216c0.017,0.075,0.097,0.12,0.169,0.101c0.023-0.004,0.039-0.014,0.057-0.025
		c0.208-0.108,0.416-0.203,0.625-0.303C42.682,12.436,42.626,12.331,42.545,12.258z M43.859,19.1v-0.02c0.122,0,0.238,0,0.354,0
		c0.121,0,0.128-0.09,0.121-0.178c-0.004-0.091-0.021-0.156-0.124-0.148l-0.614,0.033c-0.072-0.018-0.141,0.027-0.151,0.101
		c-0.009,0.019-0.009,0.036,0,0.057c-0.015,0.078,0.04,0.151,0.12,0.161c0.023,0.002,0.038,0.001,0.063-0.006
		C43.709,19.096,43.788,19.1,43.859,19.1z M39.406,31.791c0.01-0.056-0.015-0.105-0.055-0.145c-0.145-0.145-0.289-0.281-0.433-0.433
		c-0.035-0.056-0.112-0.072-0.177-0.031c-0.012,0.006-0.023,0.023-0.031,0.031c-0.077,0.08-0.098,0.136-0.018,0.216
		c0.146,0.146,0.286,0.288,0.426,0.434c0.029,0.056,0.088,0.072,0.141,0.049C39.313,31.872,39.359,31.838,39.406,31.791z
		 M16.363,8.25c0.072-0.021,0.134-0.067,0.173-0.134c0.05-0.054,0-0.096-0.035-0.135l-0.437-0.467
		c-0.071-0.078-0.133-0.046-0.19,0.015c-0.06,0.063-0.134,0.104-0.063,0.185c0.157,0.175,0.325,0.34,0.492,0.51
		C16.32,8.234,16.342,8.241,16.363,8.25z M14.613,33.348c-0.178-0.169-0.314-0.386-0.547-0.498
		C14.192,33.082,14.414,33.202,14.613,33.348z M48.328,35.803H7.725v-7.949h40.604V35.803z"/>
	<g>
		<path fill="#5F9944" d="M27.251,23.547c0-0.377,0-0.709,0-1.043c0-0.195,0.012-0.195,0.225-0.195c0.208,0,0.22,0,0.22,0.199
			c0,0.918,0,1.83,0,2.74c0,0.094,0.047,0.219-0.124,0.234c-0.194,0.018-0.249-0.008-0.306-0.193
			c-0.01-0.018-0.027-0.041-0.044-0.058c-0.169,0.173-0.401,0.274-0.644,0.274c-0.279,0.011-0.545-0.134-0.684-0.377
			c-0.271-0.422-0.29-0.963-0.048-1.41c0.211-0.403,0.711-0.561,1.116-0.35c0.025,0.012,0.05,0.029,0.074,0.044
			C27.1,23.441,27.154,23.483,27.251,23.547z M27.251,24.393c0.005-0.172-0.035-0.337-0.114-0.484
			c-0.084-0.172-0.266-0.279-0.457-0.27c-0.186,0-0.353,0.111-0.417,0.289c-0.129,0.293-0.129,0.621,0,0.916
			c0.064,0.174,0.23,0.285,0.415,0.293c0.194,0.016,0.38-0.09,0.467-0.266c0.077-0.148,0.114-0.314,0.106-0.481V24.393z"/>
		<path fill="#151414" d="M21.788,23.579c0.136-0.146,0.314-0.251,0.508-0.298c0.434-0.078,0.854,0.18,0.979,0.599
			c0.118,0.341,0.109,0.714-0.021,1.046c-0.148,0.446-0.633,0.69-1.08,0.544c-0.084-0.026-0.163-0.065-0.234-0.12
			c-0.037-0.045-0.095-0.071-0.152-0.067c0,0.294-0.013,0.592,0,0.891c0.01,0.203-0.109,0.181-0.242,0.187
			c-0.128,0-0.212-0.015-0.21-0.183c0.006-0.917,0-1.846,0-2.764c0.003-0.023,0.012-0.038,0.021-0.059
			C21.712,23.318,21.712,23.318,21.788,23.579z M22.886,24.371c-0.005-0.146-0.034-0.291-0.089-0.424
			c-0.063-0.174-0.221-0.285-0.402-0.297c-0.194-0.025-0.384,0.068-0.475,0.236c-0.191,0.311-0.191,0.702,0,1.018
			c0.126,0.232,0.418,0.314,0.652,0.186c0.094-0.049,0.168-0.133,0.209-0.235C22.852,24.702,22.886,24.538,22.886,24.371z"/>
		<path fill="#5F9944" d="M35.08,24.365c0,0.984-0.742,1.3-1.413,1.117c-0.25-0.063-0.462-0.227-0.572-0.462
			c-0.212-0.386-0.212-0.854,0-1.239c0.217-0.414,0.596-0.532,1.034-0.5c0.394,0.006,0.738,0.258,0.871,0.627
			C35.058,24.048,35.085,24.205,35.08,24.365z M34.618,24.416c0-0.155-0.033-0.313-0.096-0.457c-0.077-0.189-0.265-0.314-0.466-0.32
			c-0.216-0.022-0.428,0.098-0.522,0.291c-0.157,0.291-0.157,0.644,0,0.938c0.092,0.182,0.277,0.302,0.487,0.293
			c0.21,0.009,0.411-0.12,0.501-0.321C34.58,24.707,34.616,24.565,34.618,24.416L34.618,24.416z"/>
		<path fill="#5F9944" d="M24.971,25.241c-0.204,0.202-0.494,0.297-0.776,0.249c-0.269-0.023-0.489-0.219-0.545-0.487
			c-0.071-0.273,0.046-0.558,0.291-0.704c0.225-0.11,0.472-0.174,0.725-0.176c0.104,0.012,0.211,0,0.306-0.043
			c-0.066-0.478-0.277-0.541-1.048-0.314c-0.101-0.344,0-0.367,0.245-0.438c0.193-0.047,0.395-0.064,0.593-0.043
			c0.304,0.02,0.558,0.238,0.618,0.537c0.043,0.194,0.058,0.392,0.046,0.594c0,0.268,0,0.541,0,0.815
			c0,0.102,0.05,0.238-0.142,0.251C25.094,25.49,25.047,25.482,24.971,25.241z M24.739,24.439c-0.17-0.002-0.337,0.035-0.49,0.114
			c-0.133,0.075-0.196,0.229-0.152,0.377c0.035,0.14,0.161,0.239,0.306,0.239c0.284,0.022,0.536-0.182,0.58-0.463
			C25.018,24.482,24.984,24.439,24.739,24.439z"/>
		<path fill="#5F9944" d="M31.252,25.035c0.142,0.04,0.274,0.075,0.409,0.109c0.091,0.025,0.188,0.025,0.278,0
			c0.116-0.016,0.216-0.101,0.238-0.219c0.022-0.117-0.042-0.235-0.151-0.282c-0.093-0.05-0.186-0.095-0.278-0.153
			c-0.111-0.059-0.217-0.127-0.315-0.203c-0.227-0.173-0.265-0.489-0.093-0.717c0.048-0.064,0.114-0.117,0.187-0.148
			c0.308-0.17,0.629-0.135,0.95-0.064c0.056,0.01,0.093,0.059,0.089,0.115c0.013,0.089,0,0.18-0.033,0.264
			c-0.149-0.009-0.288-0.098-0.444-0.098c-0.097-0.006-0.19,0.012-0.277,0.04c-0.095,0.032-0.141,0.126-0.113,0.221
			c0.01,0.03,0.03,0.063,0.059,0.087c0.078,0.066,0.168,0.125,0.263,0.165c0.145,0.065,0.276,0.146,0.41,0.234
			c0.26,0.18,0.322,0.54,0.141,0.799c-0.059,0.083-0.137,0.148-0.226,0.193c-0.323,0.149-0.683,0.169-1.012,0.058
			c-0.075-0.016-0.126-0.079-0.113-0.153v-0.004C31.206,25.195,31.224,25.115,31.252,25.035z"/>
		<path fill="#151414" d="M18.53,25.123c0.063,0.367,0.05,0.383-0.306,0.383c-0.422,0-0.61-0.173-0.624-0.611
			c-0.007-0.313,0-0.627,0-0.941c0-0.266,0-0.27-0.263-0.28c-0.107,0-0.176-0.017-0.173-0.157c0.004-0.135,0.027-0.2,0.173-0.182
			c0.039,0,0.082,0,0.125,0c0.063,0.021,0.128-0.016,0.147-0.079c0.007-0.022,0.007-0.05-0.004-0.073
			c-0.001-0.012-0.001-0.02,0-0.035c0.021-0.381,0.021-0.381,0.441-0.455c0,0.15,0.01,0.314,0,0.467
			c-0.021,0.074,0.021,0.153,0.095,0.176c0.028,0.008,0.062,0.008,0.09-0.003c0.053,0,0.106,0,0.153,0
			c0.069-0.02,0.144,0.021,0.165,0.085c0.008,0.021,0.008,0.045,0.003,0.067c0,0.137-0.044,0.195-0.181,0.181
			c-0.042,0-0.084,0-0.125,0c-0.179-0.031-0.208,0.063-0.201,0.22c0.008,0.282,0,0.564,0,0.846
			C18.058,25.117,18.144,25.185,18.53,25.123z"/>
		<path fill="#5F9944" d="M30.07,23.367l-1.072,2.119l-1.018-2.094c0.056-0.051,0.13-0.069,0.203-0.059
			c0.164-0.047,0.331,0.047,0.376,0.213c0.003,0.004,0.004,0.006,0.004,0.015c0.123,0.308,0.276,0.612,0.414,0.919
			c0.081-0.01,0.146-0.072,0.152-0.156c0.117-0.222,0.223-0.449,0.337-0.674C29.631,23.305,29.631,23.305,30.07,23.367z"/>
		<path fill="#151414" d="M19.42,23.539c0.126-0.141,0.297-0.234,0.486-0.254c0.209,0,0.229,0,0.229,0.221
			c0.012,0.064,0.005,0.127-0.02,0.189c-0.045,0.029-0.102,0.035-0.153,0.016c-0.32,0.008-0.468,0.141-0.533,0.459
			c-0.026,0.22-0.034,0.441-0.026,0.661c0.012,0.21,0.004,0.417-0.02,0.623c-0.434,0.052-0.434,0.052-0.434-0.349
			c0-0.504,0-1.01,0-1.513c0-0.097-0.07-0.241,0.129-0.259C19.305,23.315,19.344,23.328,19.42,23.539z"/>
		<path fill="#5F9944" d="M35.928,23.539c0.142-0.158,0.342-0.252,0.553-0.254c0.158,0,0.173,0.084,0.158,0.205
			c-0.024,0.122,0.03,0.225-0.165,0.229c-0.36,0-0.495,0.133-0.549,0.506c-0.032,0.341-0.039,0.689-0.026,1.035
			c0,0.223-0.01,0.223-0.232,0.218c-0.222-0.003-0.212,0-0.212-0.21c0-0.555,0-1.109,0-1.665c0-0.099-0.071-0.245,0.118-0.271
			C35.76,23.305,35.846,23.328,35.928,23.539z"/>
		<path fill="#151414" d="M20.502,25.467v-2.109c0.029-0.006,0.06-0.016,0.092-0.023c0.421,0,0.34-0.006,0.342,0.33
			c0,0.51,0,1.023,0,1.536c0,0.286,0,0.286-0.304,0.277C20.598,25.478,20.557,25.467,20.502,25.467z"/>
		<path fill="#5F9944" d="M30.729,24.412c0,0.295,0,0.584,0,0.883c0,0.163-0.067,0.188-0.204,0.188c-0.22,0-0.239,0-0.239-0.188
			c0-0.6,0-1.199,0-1.794c0-0.183,0.105-0.17,0.224-0.17c0.119,0,0.231-0.013,0.227,0.17C30.729,23.805,30.729,24.107,30.729,24.412
			z"/>
		<path fill="#151414" d="M20.704,22.457c0.147-0.012,0.278,0.104,0.289,0.251v0.009c0.006,0.164-0.122,0.301-0.283,0.304
			c-0.005,0-0.006,0-0.01,0c-0.15-0.007-0.27-0.13-0.274-0.28c-0.002-0.152,0.119-0.283,0.271-0.283
			C20.699,22.457,20.7,22.457,20.704,22.457z"/>
		<path fill="#5F9944" d="M30.506,22.453c0.147-0.012,0.278,0.097,0.289,0.246c0,0.009,0,0.009,0,0.018
			c0.012,0.151-0.098,0.289-0.255,0.304c-0.16,0.005-0.298-0.116-0.313-0.28C30.227,22.588,30.352,22.457,30.506,22.453z"/>
		<path fill="#5F9944" d="M37.79,23.523c-0.008,0.219-0.195,0.391-0.415,0.385c-0.215-0.017-0.381-0.206-0.369-0.418
			c0-0.007,0.004-0.007,0.004-0.014c0.012-0.209,0.186-0.37,0.396-0.37c0.219,0.009,0.393,0.188,0.385,0.409
			C37.79,23.516,37.79,23.52,37.79,23.523z M37.222,23.281c-0.176,0.202-0.176,0.258,0,0.438c0.125,0.154,0.249,0.109,0.376,0
			c0.164-0.242,0.152-0.289-0.066-0.438C37.43,23.146,37.327,23.179,37.222,23.281z"/>
		<path fill="#5F9944" d="M37.218,23.272h0.322c0.006,0.069,0.084,0.126,0.03,0.195c-0.059,0.079,0,0.171,0.03,0.251
			c-0.006,0.006-0.02,0.006-0.03,0c-0.113-0.023-0.235-0.023-0.353,0C37.218,23.57,37.218,23.422,37.218,23.272z M37.391,23.456
			l0.055-0.019c0-0.016-0.008-0.033-0.016-0.048c-0.017-0.015-0.039-0.015-0.055,0c-0.008,0.003-0.008,0.015-0.008,0.023
			C37.367,23.43,37.377,23.444,37.391,23.456z"/>
	</g>
	<g>
		<path fill="#F5F6F6" d="M30.026,31.266c0-0.343,0-0.686,0-1.03c0-0.128-0.01-0.126,0.117-0.126h1.181c0.119,0,0.119,0,0.121,0.109
			c0.006,0.229,0.006,0.229-0.225,0.229c-0.212,0-0.419,0-0.627,0c-0.104,0-0.106,0-0.106,0.108c0,0.135,0,0.269,0,0.4
			c-0.013,0.044,0.012,0.087,0.052,0.096c0.013,0.006,0.028,0.006,0.041,0c0.216,0,0.429,0,0.643,0c0.034,0,0.072,0,0.106,0
			c0.05,0,0.061,0.027,0.069,0.076c0.026,0.266,0.027,0.266-0.244,0.266c-0.192,0-0.38,0-0.569,0c-0.068,0-0.098,0.014-0.098,0.088
			c0.005,0.172,0.004,0.342,0,0.51c-0.007,0.037,0.019,0.077,0.057,0.084c0.012,0,0.023,0,0.034-0.002c0.254,0,0.505,0,0.76,0
			c0.146,0,0.143-0.016,0.146,0.132c0,0.223,0,0.223-0.216,0.223h-1.085c-0.158,0-0.156,0.021-0.156-0.149
			C30.026,31.943,30.026,31.605,30.026,31.266z"/>
		<path fill="#F5F6F6" d="M9.938,31.984c0.085,0.373,0.083,0.377-0.268,0.455c-0.278,0.063-0.569,0.044-0.837-0.053
			c-0.445-0.158-0.68-0.484-0.732-0.945c-0.02-0.18-0.009-0.361,0.041-0.533c0.126-0.449,0.511-0.778,0.974-0.833
			c0.27-0.028,0.54,0,0.795,0.091c0.039,0,0.07,0.035,0.069,0.074c-0.001,0.007-0.002,0.014-0.004,0.022
			c-0.012,0.093-0.02,0.187-0.03,0.288c-0.077-0.012-0.149-0.033-0.218-0.065c-0.17-0.06-0.354-0.072-0.529-0.036
			c-0.333,0.068-0.55,0.301-0.615,0.65c-0.084,0.445,0.146,0.848,0.548,0.97c0.176,0.058,0.367,0.055,0.542-0.005
			C9.76,32.032,9.848,32.012,9.938,31.984z"/>
		<path fill="#F5F6F6" d="M26.441,32.465c-0.08,0.003-0.157,0-0.236-0.017c-0.382-0.091-0.611-0.347-0.651-0.739
			c-0.016-0.139-0.006-0.279,0.027-0.415c0.061-0.269,0.263-0.485,0.528-0.559c0.201-0.063,0.414-0.067,0.618-0.018
			c0.354,0.089,0.551,0.326,0.606,0.677c0.027,0.163,0.019,0.329-0.025,0.49c-0.093,0.332-0.389,0.565-0.732,0.578
			C26.532,32.473,26.486,32.465,26.441,32.465z M26.889,31.584c0-0.129-0.033-0.26-0.092-0.375
			c-0.104-0.188-0.344-0.259-0.534-0.156c-0.063,0.035-0.116,0.089-0.153,0.152c-0.135,0.22-0.139,0.496-0.012,0.725
			c0.066,0.132,0.205,0.213,0.353,0.207c0.154,0.003,0.296-0.086,0.361-0.227c0.048-0.101,0.074-0.212,0.077-0.324V31.584z"/>
		<path fill="#F5F6F6" d="M41.224,30.982c0.157-0.226,0.436-0.335,0.706-0.279c0.188,0.021,0.348,0.147,0.411,0.327
			c0.042,0.106,0.063,0.22,0.063,0.335c0,0.318,0,0.638,0,0.955c0,0.107,0,0.108-0.104,0.111c-0.08,0-0.16-0.004-0.239,0
			s-0.104-0.025-0.102-0.102c0.002-0.245,0-0.487,0-0.731c0.002-0.095-0.005-0.19-0.021-0.281c-0.03-0.128-0.093-0.224-0.227-0.248
			c-0.134-0.035-0.275,0.015-0.358,0.126c-0.079,0.104-0.119,0.232-0.116,0.36c0,0.238,0,0.479,0,0.717
			c0,0.167,0.02,0.155-0.162,0.156c-0.075,0-0.141,0-0.21,0c-0.031,0.009-0.065-0.012-0.072-0.044c-0.001-0.009-0.001-0.018,0-0.027
			c0-0.051,0-0.101,0-0.148c0-0.439,0-0.877,0-1.314c0-0.181-0.022-0.166,0.156-0.163c0.078,0,0.171-0.032,0.231,0.015
			C41.242,30.797,41.182,30.895,41.224,30.982z"/>
		<path fill="#F5F6F6" d="M20.619,32.224c-0.043,0.02-0.078,0.049-0.104,0.086c-0.185,0.163-0.442,0.21-0.671,0.13
			c-0.209-0.063-0.351-0.256-0.35-0.475c-0.021-0.203,0.093-0.4,0.28-0.484c0.17-0.074,0.352-0.111,0.536-0.111
			c0.095,0,0.189,0,0.283,0c0.011-0.209-0.084-0.332-0.276-0.359c-0.146-0.025-0.298-0.009-0.438,0.049l-0.174,0.071
			c0-0.096-0.004-0.185-0.006-0.269c0-0.036,0.027-0.066,0.063-0.069c0.262-0.104,0.547-0.126,0.82-0.067
			c0.206,0.044,0.367,0.205,0.411,0.412c0.024,0.084,0.038,0.174,0.039,0.264c0,0.309,0,0.617,0,0.926c0,0.105,0,0.105-0.107,0.109
			c-0.029,0-0.059,0-0.09,0c-0.059-0.004-0.126,0.021-0.175-0.016c-0.048-0.037-0.009-0.104-0.023-0.154
			C20.632,32.249,20.627,32.236,20.619,32.224z M20.411,31.627c-0.124-0.006-0.249,0.02-0.359,0.077
			c-0.116,0.067-0.154,0.215-0.087,0.331c0.034,0.061,0.092,0.102,0.158,0.115c0.211,0.049,0.422-0.081,0.471-0.293
			c0.001-0.009,0.003-0.02,0.005-0.025C20.639,31.627,20.635,31.621,20.411,31.627z"/>
		<path fill="#F5F6F6" d="M44.832,31.694c-0.006,0.227,0.161,0.419,0.385,0.447c0.175,0.029,0.353,0.012,0.516-0.05
			c0.037-0.024,0.081-0.038,0.125-0.041c0.007,0.009,0.01,0.019,0.011,0.025c-0.007,0.344,0.086,0.303-0.296,0.377
			c-0.192,0.037-0.388,0.033-0.577-0.014c-0.27-0.059-0.484-0.264-0.56-0.529c-0.078-0.223-0.078-0.467,0-0.689
			c0.091-0.277,0.33-0.479,0.618-0.517c0.14-0.026,0.282-0.021,0.416,0.017c0.312,0.086,0.467,0.308,0.518,0.609
			c0.016,0.087,0.009,0.18,0.018,0.269c0.011,0.089-0.029,0.097-0.103,0.097c-0.307-0.002-0.619,0-0.925,0L44.832,31.694
			L44.832,31.694z M45.604,31.42c-0.032-0.293-0.187-0.456-0.402-0.439c-0.221,0.023-0.383,0.218-0.36,0.439h0.766H45.604z"/>
		<path fill="#F5F6F6" d="M35.594,31.694c0,0.229,0.172,0.423,0.4,0.448c0.167,0.028,0.34,0.011,0.499-0.051l0.146-0.053
			c0,0.104,0,0.194,0,0.289c0,0.035-0.027,0.066-0.064,0.07c-0.316,0.095-0.637,0.126-0.948-0.006
			c-0.314-0.133-0.442-0.411-0.473-0.738c-0.013-0.092-0.008-0.188,0.01-0.281c0.083-0.416,0.369-0.666,0.788-0.682
			c0.463-0.02,0.768,0.248,0.812,0.711c0.007,0.059,0.009,0.118,0.009,0.178c0,0.114,0,0.114-0.111,0.115c-0.29,0-0.578,0-0.867,0
			L35.594,31.694L35.594,31.694z M36.367,31.419c-0.033-0.294-0.185-0.458-0.403-0.44c-0.218,0.021-0.381,0.217-0.359,0.437
			c0,0.002,0,0.002,0,0.004H36.367z"/>
		<path fill="#F5F6F6" d="M23.158,31.694c0.001,0.229,0.175,0.423,0.402,0.448c0.168,0.025,0.339,0.01,0.499-0.05
			c0.043-0.025,0.094-0.039,0.144-0.042c0,0.091,0,0.183,0,0.273c0,0.037-0.025,0.067-0.063,0.072
			c-0.316,0.094-0.637,0.128-0.949-0.005c-0.313-0.135-0.443-0.411-0.473-0.737c-0.01-0.097-0.006-0.191,0.012-0.283
			c0.081-0.414,0.369-0.666,0.786-0.682c0.464-0.02,0.769,0.247,0.813,0.708c0.005,0.061,0.008,0.12,0.008,0.181
			c0,0.112,0,0.116-0.112,0.116c-0.288,0-0.577,0-0.865,0H23.158L23.158,31.694z M23.158,31.419h0.769
			c-0.006-0.261-0.154-0.438-0.369-0.441C23.345,30.975,23.176,31.154,23.158,31.419L23.158,31.419z"/>
		<path fill="#F5F6F6" d="M10.649,31.705c0.009,0.225,0.176,0.404,0.394,0.435c0.168,0.028,0.339,0.013,0.5-0.044
			c0.039-0.016,0.083-0.034,0.144-0.059c0,0.105,0,0.194,0,0.289c0,0.035-0.025,0.066-0.06,0.072
			c-0.323,0.092-0.646,0.121-0.964-0.016c-0.181-0.082-0.319-0.229-0.387-0.413c-0.08-0.208-0.096-0.432-0.046-0.646
			c0.088-0.422,0.453-0.673,0.897-0.632c0.411,0.037,0.663,0.3,0.697,0.736c0.023,0.267,0.023,0.267-0.243,0.267
			c-0.266,0-0.527,0-0.796,0C10.741,31.688,10.693,31.69,10.649,31.705z M11.42,31.417c-0.009-0.263-0.146-0.429-0.357-0.439
			c-0.223-0.012-0.386,0.159-0.413,0.439H11.42z"/>
		<path fill="#F5F6F6" d="M40.304,32.048c0.018,0.044,0.022,0.095,0.018,0.143c0,0.204,0,0.206-0.205,0.247
			c-0.2,0.044-0.405,0.049-0.605,0.013c-0.356-0.069-0.57-0.288-0.647-0.638c-0.034-0.163-0.034-0.33,0-0.489
			c0.091-0.422,0.455-0.673,0.9-0.632c0.402,0.035,0.641,0.281,0.695,0.706c0.037,0.297,0.037,0.297-0.255,0.297h-0.807
			c-0.038-0.007-0.079-0.004-0.115,0.01c0.007,0.22,0.174,0.405,0.392,0.434c0.166,0.027,0.341,0.013,0.5-0.045
			C40.215,32.082,40.256,32.064,40.304,32.048z M40.053,31.42c-0.021-0.282-0.17-0.447-0.383-0.442
			c-0.214,0.007-0.383,0.189-0.385,0.442H40.053z"/>
		<path fill="#F5F6F6" d="M31.74,30.731c0.155,0,0.29,0.006,0.424,0c0.061-0.003,0.115,0.03,0.138,0.089
			c0.08,0.152,0.164,0.305,0.257,0.473c0.09-0.156,0.176-0.297,0.25-0.442c0.026-0.082,0.107-0.134,0.194-0.119
			c0.109,0.011,0.217,0,0.326,0c0.007,0.041-0.01,0.083-0.042,0.108c-0.131,0.199-0.262,0.399-0.4,0.594
			c-0.055,0.055-0.055,0.14-0.007,0.199c0.154,0.225,0.3,0.457,0.448,0.686c0.025,0.031,0.04,0.068,0.043,0.11h-0.453
			c-0.059,0-0.072-0.048-0.092-0.086c-0.096-0.175-0.191-0.349-0.299-0.544c-0.088,0.163-0.168,0.308-0.255,0.45
			c-0.136,0.224-0.06,0.18-0.322,0.184c-0.082,0-0.166,0-0.261,0c0.015-0.057,0.042-0.108,0.082-0.153
			c0.146-0.215,0.284-0.434,0.434-0.641c0.049-0.051,0.049-0.132,0-0.184c-0.145-0.213-0.288-0.434-0.43-0.646
			C31.769,30.792,31.761,30.772,31.74,30.731z"/>
		<path fill="#F5F6F6" d="M28.736,30.246c-0.29-0.052-0.377,0.017-0.396,0.301c-0.012,0.188-0.012,0.188,0.178,0.188
			c0.247,0,0.246,0,0.229,0.254c0.007,0.037-0.015,0.07-0.052,0.078c-0.008,0.001-0.018,0.001-0.025,0c-0.073,0-0.149,0-0.224,0
			c-0.106,0-0.106,0-0.106,0.107c0,0.361,0,0.717,0,1.074c0,0.211,0.017,0.181-0.182,0.184c-0.053,0-0.1-0.004-0.149,0
			c-0.082,0.008-0.104-0.027-0.103-0.104c0-0.348,0-0.695,0-1.045c0-0.027,0-0.059,0-0.088c0-0.129,0-0.129-0.128-0.129
			c-0.232,0-0.232,0-0.227-0.231c0-0.1,0-0.1,0.109-0.101h0.017c0.072-0.01,0.164,0.033,0.216-0.023
			c0.054-0.057,0.017-0.144,0.017-0.216c0-0.085,0.012-0.171,0.037-0.249c0.049-0.155,0.174-0.277,0.328-0.32
			c0.138-0.035,0.279-0.04,0.417-0.016c0.038-0.006,0.074,0.021,0.081,0.063c0.001,0.01,0,0.025-0.007,0.036
			C28.747,30.088,28.764,30.17,28.736,30.246z"/>
		<path fill="#F5F6F6" d="M16.752,30.244c-0.287-0.048-0.376,0.019-0.396,0.303c-0.014,0.188-0.014,0.188,0.175,0.188
			c0.249,0,0.245,0,0.232,0.251c0.006,0.039-0.021,0.075-0.061,0.083c-0.011,0-0.022,0-0.03-0.003c-0.08,0-0.159,0-0.239,0
			c-0.033-0.01-0.069,0.008-0.08,0.041c-0.003,0.012-0.003,0.025-0.001,0.036c0.005,0.054,0,0.108,0,0.162c0,0.339,0,0.679,0,1.015
			c0,0.108,0,0.111-0.104,0.112c-0.08,0-0.16,0-0.239,0c-0.038,0.01-0.079-0.016-0.088-0.052c-0.002-0.012-0.002-0.023,0-0.034
			c0-0.156,0-0.31,0-0.462c0-0.241,0-0.479,0-0.719c0-0.076-0.021-0.113-0.101-0.1c-0.015,0-0.03,0-0.045,0
			c-0.065-0.01-0.161,0.033-0.196-0.022c-0.043-0.075-0.014-0.176-0.014-0.265c0-0.039,0.031-0.045,0.062-0.045
			c0.072,0,0.141-0.003,0.209,0c0.07,0.003,0.086-0.027,0.084-0.087c-0.004-0.082-0.004-0.159,0-0.241
			c0.025-0.309,0.225-0.498,0.536-0.504c0.075-0.005,0.149,0,0.224,0.008c0.065,0.006,0.114,0.029,0.091,0.115
			C16.759,30.096,16.777,30.173,16.752,30.244z"/>
		<path fill="#F5F6F6" d="M22.081,30.196c0,0.099,0,0.194,0,0.288c0,0.078-0.033,0.175,0.017,0.229
			c0.048,0.055,0.15,0.015,0.228,0.021c0.03,0.005,0.062,0.005,0.092,0c0.029-0.011,0.06,0.007,0.071,0.037
			c0.003,0.012,0.003,0.022,0,0.036c-0.002,0.006-0.002,0.009,0,0.014c0.015,0.245,0.015,0.244-0.227,0.247
			c-0.209,0-0.176-0.032-0.18,0.181c0,0.186,0,0.369,0,0.553c-0.001,0.055,0.005,0.11,0.016,0.162c0.027,0.14,0.1,0.192,0.243,0.188
			c0.047-0.009,0.097-0.011,0.144-0.003c0.019,0.056,0.023,0.115,0.016,0.174c0,0.124,0,0.129-0.115,0.144
			c-0.134,0.021-0.269,0.017-0.402-0.009c-0.16-0.034-0.285-0.16-0.315-0.321c-0.023-0.087-0.033-0.176-0.032-0.265
			c0-0.234,0-0.469,0-0.705c0-0.076-0.024-0.107-0.103-0.096h-0.006c-0.069-0.008-0.161,0.03-0.2-0.021
			c-0.053-0.07-0.016-0.172-0.019-0.259c-0.002-0.026,0.018-0.05,0.043-0.052c0.005,0,0.012,0,0.017,0.002c0.07,0,0.139,0,0.208,0
			c0.038,0.01,0.077-0.014,0.088-0.053c0.002-0.009,0.002-0.02,0-0.031c-0.005-0.085,0-0.17,0-0.256
			c-0.011-0.033,0.007-0.069,0.041-0.086C21.824,30.266,21.951,30.225,22.081,30.196z"/>
		<path fill="#F5F6F6" d="M14.072,30.196c0,0.159,0,0.303,0,0.446c-0.011,0.039,0.009,0.08,0.048,0.092
			c0.015,0.006,0.03,0.003,0.045-0.003c0.078-0.003,0.159,0,0.24,0c0.03-0.007,0.062,0.011,0.07,0.041
			c0.003,0.01,0.003,0.02,0.001,0.027c-0.001,0.009-0.001,0.021,0,0.03c0.01,0.231,0.01,0.231-0.223,0.234
			c-0.212,0-0.18-0.031-0.182,0.18c0,0.184,0,0.367,0,0.55c-0.003,0.05,0.002,0.102,0.009,0.149c0.028,0.152,0.104,0.21,0.261,0.205
			c0.045,0,0.088-0.006,0.129-0.009c0.004,0.003,0.009,0.011,0.01,0.016c0.021,0.31,0.066,0.304-0.267,0.313
			c-0.079,0.006-0.159,0-0.236-0.017c-0.159-0.034-0.285-0.161-0.318-0.32c-0.022-0.086-0.033-0.176-0.032-0.266
			c0-0.232,0-0.468,0-0.702c0-0.071-0.019-0.112-0.1-0.102c-0.004,0-0.01,0-0.015,0c-0.069-0.005-0.162,0.033-0.202-0.018
			c-0.054-0.071-0.015-0.171-0.02-0.26c-0.003-0.024,0.014-0.049,0.039-0.053c0.006,0,0.013,0,0.018,0.003h0.09
			c0.208,0,0.208,0,0.208-0.217c0.003-0.035,0.003-0.069,0-0.104c-0.014-0.051,0.018-0.103,0.066-0.118
			c0.007,0,0.009-0.002,0.015-0.002C13.84,30.268,13.942,30.208,14.072,30.196z"/>
		<path fill="#F5F6F6" d="M34.86,31.117c-0.434-0.121-0.647-0.078-0.792,0.148c-0.131,0.209-0.119,0.475,0.029,0.672
			c0.226,0.26,0.495,0.216,0.785,0.088c0.016,0.099,0.022,0.198,0.022,0.301c0.001,0.031-0.021,0.057-0.05,0.061
			c-0.297,0.109-0.592,0.127-0.884-0.011c-0.122-0.06-0.226-0.149-0.301-0.263c-0.35-0.516-0.105-1.227,0.482-1.389
			c0.229-0.055,0.468-0.041,0.689,0.037c0.029,0.004,0.051,0.03,0.046,0.059c0,0,0,0.002,0,0.005
			C34.879,30.919,34.872,31.012,34.86,31.117z"/>
		<path fill="#F5F6F6" d="M44.102,32.032c0.005,0.007,0.014,0.013,0.017,0.019c0.032,0.392,0.081,0.319-0.28,0.405
			c-0.209,0.053-0.432,0.027-0.625-0.069c-0.121-0.059-0.227-0.149-0.302-0.258c-0.364-0.518-0.115-1.238,0.479-1.4
			c0.228-0.055,0.47-0.039,0.69,0.04c0.024,0.004,0.047,0.026,0.042,0.052c-0.007,0.098-0.016,0.197-0.024,0.305
			c-0.096-0.028-0.176-0.056-0.256-0.074c-0.27-0.06-0.541,0.104-0.609,0.374c-0.089,0.271,0.053,0.567,0.316,0.674
			c0.125,0.041,0.258,0.041,0.38,0C43.99,32.079,44.04,32.054,44.102,32.032z"/>
		<path fill="#F5F6F6" d="M19.21,31.117c-0.412-0.121-0.637-0.08-0.786,0.139c-0.131,0.205-0.124,0.468,0.017,0.674
			c0.162,0.213,0.377,0.243,0.787,0.106c0.017,0.015,0.022,0.04,0.018,0.065c0.013,0.29,0.014,0.293-0.271,0.352
			c-0.206,0.045-0.421,0.025-0.613-0.059c-0.279-0.127-0.425-0.347-0.479-0.641c-0.086-0.477,0.17-0.903,0.624-1.029
			c0.229-0.055,0.468-0.041,0.689,0.038c0.034,0.008,0.054,0.041,0.048,0.072c0,0.002-0.001,0.005-0.002,0.007
			C19.231,30.932,19.222,31.021,19.21,31.117z"/>
		<path fill="#F5F6F6" d="M37.533,31.188c0,0.377,0,0.756,0,1.133c0,0.107,0,0.108-0.106,0.111c-0.077,0-0.159-0.004-0.237,0
			c-0.082,0.004-0.1-0.032-0.1-0.104c0-0.766,0-1.533,0-2.301c0-0.078,0.02-0.108,0.1-0.104c0.078,0.008,0.16,0,0.239,0
			c0.101,0,0.104,0,0.104,0.109C37.533,30.42,37.533,30.807,37.533,31.188z"/>
		<path fill="#F5F6F6" d="M38.472,31.166c0,0.377,0,0.757,0,1.135c0,0.127,0,0.127-0.134,0.128c-0.072,0-0.142-0.004-0.208,0
			c-0.039,0.014-0.082-0.004-0.094-0.042c-0.007-0.018-0.007-0.037,0.001-0.056c0-0.013,0-0.03,0-0.044c0-0.742,0-1.48,0-2.225
			c0-0.152-0.012-0.144,0.133-0.139c0.094,0,0.213-0.041,0.275,0.016c0.061,0.055,0.021,0.189,0.021,0.285
			C38.474,30.543,38.472,30.855,38.472,31.166z"/>
		<path fill="#F5F6F6" d="M12.549,30.731l0.021,0.243c0.045-0.027,0.081-0.065,0.104-0.109c0.116-0.139,0.297-0.204,0.474-0.17
			c0.035,0,0.066,0.027,0.068,0.063c0,0.005,0,0.011-0.002,0.016c-0.005,0.086-0.009,0.17-0.009,0.255
			c0.009,0.03-0.01,0.06-0.037,0.066c-0.013,0.002-0.022,0-0.034-0.003h-0.015c-0.349-0.045-0.493,0.186-0.504,0.462
			c-0.011,0.254,0,0.506-0.005,0.763c0,0.115,0,0.115-0.114,0.116c-0.079,0-0.161,0-0.238,0c-0.08,0-0.095-0.026-0.094-0.096
			c0-0.288,0-0.577,0-0.866c0-0.215,0-0.427,0-0.643c0-0.071,0.02-0.1,0.094-0.094C12.348,30.737,12.442,30.731,12.549,30.731z"/>
		<path fill="#F5F6F6" d="M14.825,31.588c0-0.249,0-0.498,0-0.746c0-0.104,0-0.106,0.106-0.107c0.072,0,0.149,0,0.225,0
			c0.109,0,0.11,0,0.11,0.118c0,0.486,0,0.975,0,1.462c0,0.114,0,0.114-0.114,0.117c-0.064,0-0.13,0-0.197,0
			c-0.13,0-0.13,0-0.131-0.131C14.824,32.064,14.825,31.826,14.825,31.588z"/>
		<path fill="#F5F6F6" d="M17.057,31.575c0-0.249,0-0.498,0-0.747c0-0.068,0.016-0.1,0.09-0.097c0.091,0.006,0.181,0.006,0.27,0
			c0.033-0.007,0.066,0.015,0.075,0.048c0.001,0.013,0.001,0.024-0.004,0.035c0,0.027,0,0.059,0,0.087c0,0.453,0,0.906,0,1.358
			c0,0.196,0.015,0.169-0.179,0.172H17.22c-0.169,0-0.164,0.021-0.164-0.155C17.057,32.041,17.057,31.808,17.057,31.575z"/>
		<path fill="#F5F6F6" d="M17.271,30.399c-0.228,0-0.23,0-0.228-0.227c0.002-0.226-0.032-0.199,0.193-0.199c0.065,0,0.128,0,0.192,0
			c0.034-0.009,0.067,0.015,0.072,0.048c0.003,0.006,0.003,0.014,0,0.021c0,0.098,0,0.189,0,0.283
			c0.005,0.036-0.021,0.068-0.058,0.076c-0.008,0-0.017,0-0.026-0.003C17.37,30.399,17.319,30.399,17.271,30.399z"/>
		<path fill="#F5F6F6" d="M15.271,30.186c0,0.217,0,0.217-0.211,0.217c-0.241,0-0.242,0-0.241-0.242
			c0-0.203-0.029-0.184,0.181-0.184h0.061C15.271,29.974,15.271,29.974,15.271,30.186z"/>
	</g>
</g>
</svg>
