<?xml version="1.0" encoding="utf-8"?>
<!-- Generator: Adobe Illustrator 15.1.0, SVG Export Plug-In . SVG Version: 6.00 Build 0)  -->
<!DOCTYPE svg PUBLIC "-//W3C//DTD SVG 1.1//EN" "http://www.w3.org/Graphics/SVG/1.1/DTD/svg11.dtd">
<svg version="1.1" id="Layer_1" xmlns="http://www.w3.org/2000/svg" xmlns:xlink="http://www.w3.org/1999/xlink" x="0px" y="0px"
	 width="40.833px" height="38px" viewBox="0 0 40.833 38" enable-background="new 0 0 40.833 38" xml:space="preserve">
<circle fill="#FFFFFF" cx="20.416" cy="18.618" r="17.764"/>
<g>
	<g>
		<g>
			<path fill="#599441" d="M8.64,7.116c0.058-0.311,0.213-0.57,0.467-0.78c0.288-0.239,0.621-0.342,0.999-0.309
				c0.188,0.016,0.357,0.065,0.513,0.147c0.154,0.082,0.292,0.195,0.412,0.341c0.244,0.293,0.347,0.626,0.31,1
				c-0.038,0.378-0.2,0.687-0.488,0.926c-0.29,0.241-0.624,0.344-1,0.309S9.167,8.551,8.926,8.261L7.467,6.502
				C7.421,6.445,7.4,6.384,7.407,6.316c0.006-0.068,0.038-0.125,0.094-0.172c0.056-0.046,0.117-0.066,0.186-0.061
				C7.756,6.089,7.813,6.12,7.86,6.176L8.64,7.116z M10.526,8.047c0.092-0.076,0.162-0.165,0.214-0.266
				c0.05-0.102,0.08-0.207,0.091-0.317c0.01-0.109-0.002-0.218-0.034-0.326c-0.031-0.109-0.084-0.208-0.159-0.298
				c-0.074-0.09-0.161-0.161-0.263-0.212c-0.101-0.051-0.205-0.082-0.313-0.093c-0.109-0.011-0.22,0-0.329,0.031
				C9.624,6.599,9.523,6.652,9.432,6.729C9.339,6.805,9.267,6.895,9.217,6.996C9.164,7.098,9.135,7.203,9.125,7.311
				c-0.01,0.108,0.002,0.217,0.033,0.326C9.19,7.745,9.244,7.845,9.319,7.935c0.074,0.091,0.163,0.161,0.264,0.213
				c0.1,0.051,0.205,0.083,0.314,0.093c0.107,0.011,0.216,0,0.326-0.031C10.332,8.179,10.434,8.124,10.526,8.047z"/>
			<path fill="#599441" d="M13.335,5.916c0.063-0.036,0.129-0.043,0.194-0.024c0.064,0.019,0.115,0.061,0.149,0.125
				c0.034,0.063,0.042,0.128,0.023,0.196c-0.115,0.315-0.324,0.554-0.626,0.719c-0.331,0.181-0.679,0.217-1.04,0.11
				c-0.362-0.106-0.634-0.326-0.814-0.658c-0.181-0.332-0.217-0.678-0.111-1.04c0.107-0.362,0.326-0.634,0.659-0.814
				c0.328-0.179,0.675-0.215,1.04-0.11c0.18,0.052,0.338,0.133,0.475,0.243c0.135,0.11,0.249,0.249,0.34,0.415
				c0.034,0.064,0.042,0.129,0.021,0.195c-0.021,0.066-0.063,0.116-0.125,0.151l-1.699,0.924c0.066,0.065,0.143,0.118,0.226,0.157
				c0.082,0.04,0.167,0.065,0.256,0.077c0.09,0.012,0.18,0.01,0.27-0.006c0.091-0.016,0.178-0.046,0.261-0.091
				c0.095-0.052,0.172-0.113,0.235-0.185s0.113-0.154,0.149-0.248C13.24,5.993,13.279,5.947,13.335,5.916z M13.024,5.115
				c-0.067-0.065-0.143-0.118-0.227-0.156c-0.083-0.039-0.169-0.064-0.258-0.076c-0.089-0.012-0.18-0.01-0.269,0.006
				c-0.091,0.016-0.178,0.046-0.259,0.09c-0.081,0.044-0.154,0.101-0.217,0.168c-0.063,0.068-0.114,0.143-0.152,0.224
				c-0.04,0.081-0.065,0.167-0.077,0.258c-0.011,0.091-0.007,0.182,0.013,0.273L13.024,5.115z"/>
			<path fill="#599441" d="M14.382,4.896c-0.164-0.008-0.286-0.032-0.364-0.071l0.003-0.001c-0.156-0.08-0.262-0.2-0.314-0.361
				c-0.039-0.117-0.042-0.234-0.011-0.35c0.03-0.116,0.086-0.223,0.164-0.323c0.079-0.1,0.175-0.188,0.289-0.266
				c0.114-0.078,0.234-0.138,0.361-0.18c0.386-0.127,0.769-0.082,1.148,0.138c0.046,0.03,0.077,0.073,0.097,0.13
				c0.022,0.069,0.019,0.134-0.012,0.195c-0.03,0.061-0.08,0.102-0.15,0.125c-0.049,0.017-0.096,0.017-0.14,0
				c-0.044-0.016-0.088-0.035-0.13-0.057c-0.211-0.105-0.428-0.121-0.653-0.047c-0.224,0.073-0.379,0.2-0.467,0.38
				C14.187,4.242,14.186,4.28,14.2,4.323c0.014,0.043,0.043,0.066,0.089,0.068l1.203-0.001c0.171,0.009,0.291,0.032,0.362,0.071
				h-0.002c0.156,0.081,0.262,0.201,0.314,0.362c0.039,0.119,0.043,0.236,0.011,0.351c-0.03,0.115-0.086,0.222-0.164,0.323
				c-0.078,0.1-0.174,0.188-0.288,0.265c-0.113,0.077-0.233,0.136-0.359,0.178c-0.391,0.128-0.771,0.084-1.147-0.133
				c-0.049-0.034-0.083-0.078-0.1-0.134c-0.023-0.069-0.02-0.135,0.01-0.195c0.031-0.061,0.081-0.103,0.151-0.125
				c0.051-0.017,0.1-0.016,0.145,0.002c0.046,0.018,0.088,0.037,0.126,0.054c0.209,0.106,0.428,0.122,0.655,0.047
				c0.222-0.073,0.376-0.201,0.465-0.385c0.014-0.034,0.015-0.069,0.002-0.106c-0.014-0.043-0.044-0.066-0.092-0.07L14.382,4.896z"
				/>
			<path fill="#599441" d="M16.155,2.886l0.114-0.021l-0.166-0.903c-0.013-0.069,0-0.132,0.04-0.19
				c0.04-0.057,0.096-0.093,0.166-0.105c0.068-0.013,0.132,0.001,0.19,0.041c0.058,0.04,0.093,0.094,0.104,0.163l0.166,0.903
				l0.3-0.055c0.069-0.012,0.133,0.001,0.188,0.042c0.058,0.04,0.093,0.094,0.105,0.163c0.013,0.07-0.001,0.134-0.039,0.192
				c-0.039,0.057-0.093,0.093-0.162,0.105l-0.301,0.055l0.223,1.208c0.058,0.318,0.247,0.448,0.567,0.39
				c0.069-0.012,0.132,0.001,0.189,0.041c0.057,0.04,0.091,0.095,0.104,0.164c0.014,0.07,0,0.134-0.039,0.192
				s-0.093,0.093-0.161,0.105c-0.655,0.12-1.043-0.146-1.162-0.799L16.36,3.368l-0.112,0.021c-0.067,0.012-0.129-0.001-0.188-0.042
				c-0.059-0.04-0.093-0.095-0.106-0.165c-0.013-0.069,0-0.132,0.042-0.19C16.035,2.934,16.089,2.899,16.155,2.886z"/>
			<path fill="#599441" d="M20.495,5.279c-0.326-0.02-0.605-0.138-0.837-0.352l-0.074,1.215c-0.005,0.073-0.033,0.132-0.086,0.178
				c-0.052,0.044-0.114,0.065-0.187,0.061c-0.072-0.005-0.132-0.032-0.177-0.083s-0.065-0.113-0.062-0.187l0.142-2.28
				c0.022-0.377,0.176-0.69,0.458-0.94c0.283-0.25,0.613-0.364,0.989-0.341c0.374,0.023,0.688,0.176,0.941,0.459
				c0.125,0.14,0.216,0.292,0.272,0.458c0.056,0.166,0.079,0.342,0.067,0.531c-0.023,0.38-0.177,0.694-0.459,0.941
				c-0.145,0.126-0.299,0.218-0.463,0.273C20.857,5.269,20.682,5.291,20.495,5.279z M19.724,3.862
				c-0.008,0.117,0.008,0.229,0.047,0.336c0.038,0.107,0.094,0.201,0.165,0.283c0.071,0.082,0.158,0.148,0.26,0.2
				c0.1,0.052,0.211,0.082,0.331,0.088c0.119,0.008,0.23-0.008,0.338-0.047s0.201-0.095,0.283-0.168
				c0.083-0.073,0.149-0.16,0.199-0.261c0.052-0.1,0.08-0.209,0.088-0.326c0.007-0.116-0.009-0.229-0.048-0.334
				c-0.038-0.106-0.092-0.2-0.165-0.283c-0.072-0.082-0.159-0.149-0.26-0.202c-0.102-0.052-0.212-0.082-0.33-0.088
				c-0.12-0.008-0.234,0.008-0.341,0.047s-0.2,0.095-0.282,0.167c-0.081,0.072-0.147,0.159-0.198,0.26
				C19.761,3.636,19.731,3.745,19.724,3.862z"/>
			<path fill="#599441" d="M22.905,3.094l-0.011,0.047c0.141-0.067,0.286-0.11,0.438-0.128c0.152-0.018,0.306-0.009,0.465,0.028
				c0.07,0.017,0.144,0.039,0.222,0.067c0.079,0.028,0.147,0.063,0.21,0.103c0.062,0.04,0.108,0.086,0.144,0.14
				c0.034,0.053,0.044,0.114,0.028,0.182c-0.009,0.035-0.022,0.066-0.044,0.093c-0.02,0.027-0.044,0.049-0.071,0.067
				c-0.028,0.018-0.058,0.029-0.092,0.035c-0.032,0.005-0.065,0.004-0.102-0.004c-0.03-0.007-0.063-0.023-0.098-0.05
				c-0.091-0.063-0.195-0.108-0.313-0.135c-0.115-0.027-0.229-0.031-0.34-0.011c-0.112,0.02-0.215,0.059-0.307,0.116
				c-0.093,0.058-0.174,0.133-0.24,0.224c-0.066,0.092-0.115,0.195-0.142,0.311L22.4,5.263c-0.016,0.068-0.054,0.12-0.113,0.157
				c-0.06,0.038-0.124,0.048-0.192,0.032c-0.069-0.016-0.123-0.055-0.16-0.114s-0.047-0.124-0.031-0.191l0.505-2.168
				c0.016-0.068,0.054-0.121,0.114-0.158c0.059-0.037,0.123-0.047,0.193-0.031c0.067,0.016,0.12,0.053,0.157,0.113
				C22.91,2.962,22.921,3.025,22.905,3.094z"/>
			<path fill="#599441" d="M24.021,5.686l0.724-2.1c0.023-0.068,0.066-0.117,0.13-0.148c0.063-0.031,0.127-0.035,0.193-0.012
				c0.066,0.023,0.114,0.066,0.146,0.129c0.031,0.063,0.035,0.129,0.013,0.197l-0.724,2.101C24.479,5.92,24.434,5.969,24.371,6
				s-0.128,0.035-0.194,0.012c-0.065-0.023-0.114-0.066-0.145-0.129S23.997,5.754,24.021,5.686z M25.51,3.064
				c-0.027,0.079-0.077,0.136-0.153,0.172c-0.074,0.036-0.15,0.041-0.229,0.014c-0.077-0.027-0.134-0.078-0.171-0.152
				c-0.037-0.075-0.042-0.151-0.015-0.229c0.027-0.079,0.078-0.136,0.152-0.172s0.151-0.041,0.229-0.014
				c0.079,0.027,0.137,0.078,0.172,0.152C25.532,2.91,25.536,2.986,25.51,3.064z"/>
			<path fill="#599441" d="M26.823,6.323c0.065,0.032,0.109,0.08,0.133,0.144c0.021,0.064,0.018,0.129-0.015,0.195
				c-0.031,0.064-0.083,0.109-0.153,0.134c-0.323,0.09-0.64,0.061-0.947-0.088c-0.34-0.164-0.573-0.424-0.698-0.78
				c-0.124-0.356-0.104-0.705,0.06-1.045c0.164-0.34,0.424-0.572,0.78-0.697c0.357-0.125,0.705-0.105,1.045,0.059
				c0.31,0.149,0.529,0.377,0.659,0.686c0.029,0.073,0.028,0.144-0.006,0.212c-0.03,0.066-0.078,0.111-0.143,0.134
				c-0.065,0.023-0.131,0.019-0.196-0.013c-0.057-0.027-0.098-0.069-0.124-0.125c-0.045-0.099-0.1-0.185-0.166-0.256
				c-0.067-0.072-0.148-0.131-0.246-0.178c-0.106-0.051-0.217-0.08-0.329-0.084c-0.114-0.005-0.224,0.01-0.327,0.046
				c-0.104,0.036-0.198,0.091-0.283,0.166c-0.086,0.074-0.154,0.165-0.206,0.272s-0.08,0.217-0.085,0.331
				c-0.005,0.113,0.011,0.221,0.047,0.325c0.037,0.104,0.094,0.198,0.168,0.283c0.074,0.086,0.166,0.154,0.272,0.206
				c0.096,0.046,0.193,0.074,0.29,0.082c0.098,0.008,0.197-0.002,0.302-0.03C26.711,6.29,26.767,6.297,26.823,6.323z"/>
			<path fill="#599441" d="M28.87,7.734c0.059,0.043,0.094,0.099,0.104,0.166c0.011,0.067-0.006,0.13-0.05,0.189
				c-0.042,0.058-0.098,0.092-0.168,0.104c-0.334,0.028-0.639-0.059-0.915-0.262c-0.305-0.224-0.485-0.523-0.543-0.896
				c-0.056-0.373,0.027-0.712,0.252-1.017c0.222-0.304,0.521-0.484,0.895-0.541c0.373-0.057,0.712,0.026,1.016,0.25
				c0.301,0.222,0.482,0.521,0.542,0.896c0.029,0.185,0.023,0.362-0.02,0.533c-0.042,0.169-0.119,0.331-0.23,0.483
				c-0.044,0.059-0.1,0.093-0.168,0.102c-0.069,0.009-0.132-0.007-0.189-0.05l-1.558-1.146c-0.03,0.089-0.047,0.179-0.048,0.27
				c0,0.092,0.014,0.18,0.041,0.266s0.066,0.166,0.118,0.241c0.054,0.075,0.118,0.141,0.194,0.197
				c0.087,0.063,0.176,0.109,0.268,0.136c0.091,0.026,0.187,0.036,0.286,0.029C28.76,7.682,28.818,7.698,28.87,7.734z M29.464,7.113
				c0.03-0.088,0.045-0.178,0.046-0.271c-0.001-0.092-0.015-0.181-0.041-0.266C29.441,6.49,29.402,6.41,29.35,6.334
				c-0.054-0.075-0.117-0.14-0.191-0.195c-0.075-0.055-0.156-0.097-0.245-0.125c-0.088-0.028-0.178-0.043-0.267-0.044
				c-0.091-0.001-0.181,0.012-0.267,0.04c-0.087,0.028-0.168,0.07-0.242,0.127L29.464,7.113z"/>
		</g>
	</g>
	<g>
		<g>
			<path fill="#599441" d="M9.808,30.578c-0.335-0.058-0.617-0.219-0.848-0.484c-0.265-0.307-0.384-0.662-0.355-1.067
				c0.029-0.404,0.197-0.739,0.504-1.006c0.307-0.266,0.662-0.384,1.066-0.355c0.405,0.029,0.74,0.197,1.006,0.504
				c0.264,0.304,0.382,0.66,0.355,1.066c-0.029,0.404-0.196,0.74-0.504,1.006L9.93,31.196c-0.094,0.083-0.196,0.146-0.308,0.19
				c-0.108,0.044-0.221,0.071-0.337,0.081c-0.115,0.01-0.231,0.004-0.349-0.017c-0.119-0.021-0.23-0.055-0.341-0.103
				c-0.11-0.047-0.214-0.106-0.311-0.176c-0.099-0.07-0.186-0.15-0.263-0.238c-0.092-0.106-0.167-0.222-0.229-0.347
				c-0.061-0.126-0.104-0.257-0.131-0.394c-0.025-0.137-0.033-0.277-0.021-0.421c0.012-0.144,0.043-0.284,0.094-0.42
				c0.013-0.048,0.04-0.091,0.083-0.128c0.06-0.052,0.127-0.074,0.199-0.069c0.073,0.006,0.136,0.039,0.188,0.099
				c0.034,0.039,0.053,0.08,0.058,0.122c0.003,0.042-0.007,0.112-0.031,0.213c-0.025,0.1-0.039,0.181-0.042,0.244
				c-0.02,0.281,0.062,0.528,0.246,0.741c0.186,0.214,0.416,0.33,0.693,0.351c0.189-0.005,0.337-0.053,0.441-0.144L9.808,30.578z
				 M10.767,28.528c-0.085-0.098-0.183-0.173-0.293-0.226s-0.224-0.083-0.34-0.091c-0.117-0.008-0.234,0.008-0.35,0.044
				c-0.116,0.037-0.222,0.097-0.317,0.18c-0.096,0.082-0.168,0.179-0.222,0.288s-0.084,0.223-0.094,0.339
				c-0.008,0.117,0.005,0.233,0.041,0.35c0.036,0.117,0.098,0.225,0.183,0.322c0.083,0.097,0.181,0.171,0.291,0.224
				c0.109,0.053,0.224,0.082,0.342,0.09c0.117,0.008,0.235-0.006,0.35-0.043c0.115-0.036,0.221-0.096,0.316-0.178
				s0.169-0.179,0.221-0.287c0.052-0.109,0.083-0.223,0.093-0.341s-0.005-0.235-0.041-0.352S10.85,28.624,10.767,28.528z"/>
			<path fill="#599441" d="M12.614,33.134c-0.066-0.043-0.104-0.102-0.117-0.174c-0.014-0.071,0.001-0.139,0.042-0.202
				c-0.153,0.011-0.297-0.005-0.433-0.045s-0.27-0.104-0.399-0.192c-0.154-0.104-0.28-0.233-0.378-0.387
				c-0.096-0.153-0.161-0.316-0.194-0.488c-0.033-0.173-0.033-0.348-0.001-0.526c0.034-0.179,0.104-0.345,0.207-0.5l0.728-1.073
				c0.042-0.062,0.1-0.101,0.174-0.115c0.074-0.014,0.143,0,0.206,0.044c0.063,0.042,0.102,0.101,0.116,0.175
				s-0.001,0.142-0.043,0.204l-0.727,1.073c-0.063,0.094-0.105,0.194-0.125,0.301c-0.021,0.106-0.021,0.212-0.002,0.314
				c0.021,0.104,0.06,0.201,0.117,0.292c0.059,0.092,0.136,0.169,0.23,0.233c0.093,0.063,0.191,0.104,0.298,0.124
				c0.107,0.021,0.213,0.021,0.316,0.001c0.105-0.021,0.202-0.06,0.294-0.117c0.091-0.058,0.168-0.134,0.231-0.228l0.728-1.073
				c0.042-0.063,0.101-0.101,0.174-0.115c0.074-0.014,0.142,0,0.207,0.044c0.062,0.042,0.1,0.1,0.114,0.174s0,0.143-0.043,0.204
				l-1.34,1.982c-0.043,0.062-0.101,0.1-0.175,0.114S12.677,33.178,12.614,33.134z"/>
			<path fill="#599441" d="M15.844,34.223l0.019-0.05c-0.161,0.053-0.322,0.078-0.485,0.076c-0.164-0.001-0.328-0.033-0.492-0.094
				c-0.38-0.143-0.654-0.398-0.822-0.768s-0.181-0.744-0.039-1.124c0.144-0.38,0.399-0.653,0.769-0.821s0.743-0.182,1.123-0.039
				c0.378,0.141,0.651,0.396,0.822,0.768c0.168,0.369,0.182,0.743,0.038,1.123l-0.419,1.121c-0.026,0.07-0.074,0.121-0.143,0.152
				s-0.138,0.033-0.208,0.008c-0.072-0.027-0.124-0.076-0.155-0.144C15.82,34.362,15.817,34.293,15.844,34.223z M15.723,31.917
				c-0.12-0.045-0.242-0.064-0.364-0.059c-0.122,0.007-0.236,0.034-0.342,0.084c-0.106,0.049-0.201,0.117-0.286,0.205
				s-0.148,0.191-0.192,0.309c-0.045,0.118-0.064,0.238-0.058,0.359c0.006,0.122,0.032,0.236,0.08,0.343s0.115,0.202,0.203,0.288
				c0.089,0.084,0.192,0.149,0.313,0.195c0.119,0.045,0.24,0.063,0.363,0.057c0.121-0.006,0.236-0.034,0.343-0.084
				c0.107-0.049,0.203-0.117,0.288-0.205c0.082-0.087,0.147-0.189,0.191-0.307c0.044-0.118,0.063-0.238,0.058-0.358
				c-0.007-0.121-0.034-0.235-0.082-0.343c-0.049-0.108-0.116-0.205-0.204-0.289C15.946,32.026,15.843,31.962,15.723,31.917z"/>
			<path fill="#599441" d="M17.871,32.259l-0.009,0.051c0.146-0.08,0.302-0.135,0.463-0.164c0.161-0.028,0.327-0.027,0.5,0.002
				c0.075,0.014,0.156,0.033,0.242,0.059c0.084,0.025,0.161,0.058,0.229,0.098c0.068,0.039,0.123,0.086,0.163,0.141
				c0.04,0.056,0.055,0.12,0.042,0.193c-0.008,0.038-0.021,0.072-0.041,0.103c-0.021,0.03-0.045,0.056-0.073,0.077
				c-0.028,0.021-0.061,0.035-0.096,0.043c-0.036,0.008-0.071,0.009-0.109,0.002c-0.033-0.006-0.068-0.021-0.109-0.048
				c-0.101-0.063-0.215-0.104-0.342-0.126c-0.127-0.022-0.248-0.02-0.367,0.009s-0.226,0.076-0.322,0.144
				c-0.096,0.067-0.178,0.152-0.243,0.254c-0.066,0.103-0.111,0.217-0.133,0.342l-0.206,1.179c-0.013,0.074-0.05,0.134-0.111,0.177
				s-0.13,0.059-0.203,0.046c-0.076-0.014-0.136-0.051-0.18-0.112c-0.043-0.063-0.058-0.13-0.045-0.204l0.41-2.356
				c0.014-0.074,0.051-0.133,0.112-0.177s0.129-0.059,0.206-0.046c0.074,0.014,0.133,0.051,0.177,0.112
				C17.868,32.116,17.884,32.185,17.871,32.259z"/>
			<path fill="#599441" d="M21.878,35.002l0.001-0.053c-0.134,0.103-0.277,0.18-0.433,0.233c-0.154,0.053-0.319,0.078-0.494,0.074
				c-0.405-0.008-0.75-0.157-1.03-0.449c-0.281-0.293-0.418-0.642-0.411-1.048c0.008-0.405,0.157-0.749,0.451-1.03
				c0.292-0.281,0.641-0.418,1.047-0.41c0.401,0.008,0.745,0.158,1.03,0.449c0.28,0.293,0.417,0.642,0.41,1.047l-0.022,1.197
				c-0.002,0.074-0.029,0.139-0.085,0.19c-0.054,0.053-0.118,0.078-0.193,0.077c-0.077-0.002-0.142-0.029-0.193-0.084
				C21.901,35.142,21.876,35.077,21.878,35.002z M20.997,32.867c-0.129-0.002-0.25,0.02-0.363,0.067
				c-0.112,0.047-0.21,0.11-0.295,0.191c-0.083,0.082-0.15,0.178-0.201,0.289c-0.05,0.111-0.076,0.229-0.078,0.355
				c-0.003,0.126,0.02,0.245,0.065,0.358c0.045,0.112,0.108,0.211,0.189,0.296c0.08,0.085,0.177,0.152,0.287,0.204
				c0.111,0.051,0.231,0.077,0.36,0.08c0.127,0.002,0.248-0.021,0.361-0.067s0.212-0.111,0.296-0.193
				c0.085-0.082,0.153-0.178,0.202-0.289c0.051-0.109,0.076-0.228,0.079-0.354c0.002-0.126-0.02-0.245-0.065-0.356
				c-0.045-0.112-0.11-0.211-0.191-0.297c-0.081-0.085-0.177-0.153-0.287-0.204C21.245,32.896,21.124,32.87,20.997,32.867z"/>
			<path fill="#599441" d="M23.146,32.509c0.19-0.225,0.44-0.368,0.749-0.433c0.179-0.038,0.357-0.038,0.534-0.001
				c0.176,0.036,0.339,0.102,0.486,0.197c0.149,0.095,0.276,0.217,0.382,0.365c0.106,0.148,0.179,0.315,0.218,0.5l0.264,1.267
				c0.015,0.075,0.002,0.144-0.039,0.207s-0.099,0.103-0.173,0.118c-0.075,0.016-0.145,0.003-0.207-0.039
				c-0.064-0.041-0.104-0.1-0.118-0.175l-0.265-1.267c-0.022-0.109-0.065-0.208-0.128-0.297c-0.063-0.089-0.14-0.162-0.228-0.22
				c-0.087-0.058-0.186-0.098-0.292-0.12c-0.105-0.021-0.214-0.022-0.323,0.001c-0.111,0.022-0.211,0.065-0.3,0.128
				c-0.087,0.062-0.159,0.138-0.219,0.227c-0.058,0.089-0.098,0.187-0.12,0.293c-0.021,0.105-0.021,0.214,0.002,0.323l0.264,1.267
				c0.016,0.075,0.003,0.145-0.038,0.207c-0.042,0.063-0.099,0.103-0.172,0.118c-0.076,0.016-0.146,0.003-0.208-0.038
				c-0.063-0.041-0.104-0.1-0.119-0.176l-0.486-2.337c-0.015-0.073-0.002-0.143,0.039-0.206c0.041-0.064,0.1-0.104,0.175-0.12
				c0.073-0.015,0.142-0.001,0.205,0.04C23.093,32.382,23.132,32.438,23.146,32.509z"/>
			<path fill="#599441" d="M25.343,31.685l0.113-0.049l-0.386-0.907c-0.029-0.069-0.03-0.139-0.002-0.209s0.078-0.12,0.148-0.149
				c0.069-0.03,0.139-0.03,0.209-0.003c0.069,0.028,0.12,0.077,0.149,0.146l0.386,0.907l0.302-0.128
				c0.068-0.029,0.139-0.029,0.207-0.001c0.07,0.028,0.12,0.077,0.148,0.146c0.03,0.07,0.032,0.141,0.004,0.211
				c-0.026,0.069-0.075,0.119-0.145,0.148l-0.302,0.128l0.517,1.215c0.136,0.32,0.365,0.412,0.687,0.274
				c0.07-0.029,0.14-0.029,0.207-0.001c0.07,0.028,0.119,0.077,0.149,0.146c0.029,0.071,0.03,0.142,0.004,0.211
				c-0.027,0.069-0.075,0.119-0.146,0.148c-0.658,0.28-1.126,0.092-1.406-0.565l-0.517-1.214l-0.113,0.048
				c-0.067,0.029-0.137,0.029-0.206,0.002c-0.07-0.029-0.12-0.078-0.151-0.149c-0.028-0.069-0.029-0.139-0.001-0.208
				C25.228,31.763,25.275,31.713,25.343,31.685z"/>
			<path fill="#599441" d="M29.682,31.643c0.064-0.046,0.132-0.062,0.204-0.05c0.072,0.013,0.131,0.051,0.176,0.115
				c0.045,0.063,0.062,0.131,0.049,0.205c-0.083,0.352-0.276,0.633-0.576,0.847c-0.331,0.234-0.697,0.317-1.097,0.249
				s-0.717-0.268-0.951-0.599c-0.235-0.331-0.318-0.696-0.25-1.097s0.268-0.717,0.599-0.951c0.328-0.232,0.694-0.315,1.098-0.25
				c0.198,0.033,0.377,0.1,0.536,0.2s0.298,0.233,0.415,0.399c0.045,0.063,0.062,0.133,0.048,0.205
				c-0.015,0.073-0.053,0.132-0.114,0.177l-1.695,1.201c0.078,0.062,0.165,0.107,0.258,0.139c0.094,0.032,0.188,0.048,0.284,0.05
				c0.097,0.001,0.192-0.012,0.287-0.041c0.095-0.027,0.184-0.071,0.266-0.13c0.094-0.066,0.171-0.142,0.229-0.227
				c0.058-0.084,0.1-0.179,0.127-0.283C29.59,31.737,29.626,31.684,29.682,31.643z M29.249,30.827
				c-0.08-0.062-0.167-0.107-0.261-0.139s-0.188-0.047-0.286-0.049c-0.096-0.001-0.191,0.012-0.286,0.041
				c-0.095,0.028-0.183,0.071-0.264,0.129s-0.151,0.127-0.21,0.207s-0.104,0.166-0.136,0.258s-0.048,0.188-0.049,0.285
				c-0.001,0.099,0.015,0.195,0.048,0.29L29.249,30.827z"/>
			<path fill="#599441" d="M32.12,29.114c0.051-0.061,0.112-0.093,0.185-0.1c0.074-0.007,0.14,0.016,0.2,0.066
				c0.059,0.049,0.092,0.111,0.101,0.187c0.007,0.36-0.107,0.683-0.345,0.965c-0.261,0.312-0.593,0.484-0.996,0.52
				c-0.404,0.036-0.762-0.077-1.072-0.338c-0.312-0.261-0.484-0.593-0.521-0.997c-0.035-0.404,0.077-0.762,0.339-1.072
				c0.259-0.309,0.59-0.482,0.997-0.52c0.201-0.019,0.39,0,0.569,0.057c0.18,0.058,0.348,0.15,0.502,0.281
				c0.062,0.051,0.095,0.113,0.099,0.187c0.006,0.074-0.017,0.141-0.066,0.2l-1.334,1.592c0.093,0.039,0.187,0.062,0.286,0.068
				c0.098,0.008,0.193-0.001,0.287-0.023c0.094-0.023,0.183-0.061,0.267-0.112s0.159-0.116,0.224-0.194
				c0.074-0.088,0.129-0.181,0.165-0.276c0.034-0.097,0.052-0.198,0.052-0.307C32.057,29.229,32.078,29.168,32.12,29.114z
				 M31.495,28.436c-0.094-0.039-0.188-0.062-0.287-0.067c-0.1-0.007-0.195,0.002-0.289,0.025s-0.182,0.061-0.268,0.111
				c-0.083,0.052-0.157,0.115-0.222,0.191c-0.063,0.077-0.113,0.162-0.149,0.254c-0.037,0.093-0.059,0.188-0.066,0.284
				s0.002,0.193,0.025,0.288c0.024,0.096,0.063,0.186,0.119,0.269L31.495,28.436z"/>
		</g>
	</g>
	<circle fill="none" stroke="#599441" stroke-miterlimit="10" cx="20.125" cy="18.681" r="18"/>
	<circle fill="none" stroke="#599441" stroke-miterlimit="10" cx="19.668" cy="18.225" r="12.031"/>
	<rect x="0.875" y="13.306" fill="#599441" width="39.25" height="10.625"/>
	<g>
		<g>
			<path fill="#FFFFFF" d="M5.412,16.772c0.228-0.048,0.683-0.096,1.121-0.096c0.529,0,0.854,0.062,1.138,0.259
				c0.268,0.17,0.456,0.484,0.456,0.907c0,0.402-0.199,0.777-0.632,0.975v0.014c0.438,0.137,0.763,0.539,0.763,1.125
				c0,0.423-0.159,0.75-0.398,0.982c-0.279,0.266-0.746,0.416-1.509,0.416c-0.427,0-0.745-0.034-0.938-0.068V16.772z M6.271,18.532
				h0.284c0.461,0,0.7-0.225,0.7-0.566c0-0.348-0.222-0.532-0.614-0.532c-0.194,0-0.302,0.014-0.37,0.027V18.532z M6.271,20.571
				c0.085,0.014,0.188,0.014,0.336,0.014c0.393,0,0.739-0.184,0.739-0.668c0-0.457-0.347-0.641-0.779-0.641H6.271V20.571z"/>
			<path fill="#FFFFFF" d="M11.413,19.364h-1.412v1.091h1.577v0.853H9.136v-4.597h2.362v0.853h-1.497v0.955h1.412V19.364z"/>
			<path fill="#FFFFFF" d="M12.48,20.237c0.228,0.143,0.592,0.287,0.962,0.287c0.398,0,0.608-0.198,0.608-0.498
				c0-0.287-0.182-0.45-0.643-0.641c-0.638-0.273-1.059-0.696-1.059-1.364c0-0.784,0.552-1.378,1.451-1.378
				c0.438,0,0.751,0.103,0.979,0.232l-0.193,0.833c-0.147-0.089-0.427-0.219-0.797-0.219c-0.375,0-0.558,0.212-0.558,0.443
				c0,0.293,0.211,0.423,0.712,0.648c0.677,0.3,0.99,0.723,0.99,1.371c0,0.771-0.49,1.426-1.543,1.426
				c-0.438,0-0.87-0.144-1.087-0.287L12.48,20.237z"/>
			<path fill="#FFFFFF" d="M16.553,17.584h-1.036v-0.873h2.948v0.873h-1.047v3.724h-0.865V17.584z"/>
			<path fill="#FFFFFF" d="M20.641,16.772c0.268-0.055,0.643-0.096,1.172-0.096c0.535,0,0.917,0.123,1.173,0.369
				c0.25,0.231,0.409,0.614,0.409,1.064s-0.119,0.839-0.353,1.091c-0.296,0.327-0.734,0.484-1.246,0.484
				c-0.114,0-0.217-0.007-0.296-0.027v1.65h-0.859V16.772z M21.5,18.859c0.073,0.021,0.159,0.027,0.29,0.027
				c0.461,0,0.745-0.28,0.745-0.743c0-0.423-0.244-0.675-0.683-0.675c-0.171,0-0.29,0.014-0.353,0.034V18.859z"/>
			<path fill="#FFFFFF" d="M24.229,16.772c0.278-0.055,0.688-0.096,1.155-0.096c0.569,0,0.968,0.103,1.24,0.362
				c0.233,0.218,0.358,0.545,0.358,0.968c0,0.58-0.347,0.982-0.677,1.125v0.021c0.268,0.129,0.415,0.43,0.512,0.853
				c0.12,0.525,0.233,1.125,0.308,1.303h-0.888c-0.057-0.136-0.153-0.505-0.262-1.071c-0.108-0.58-0.273-0.73-0.632-0.737h-0.256
				v1.808h-0.859V16.772z M25.088,18.75h0.341c0.433,0,0.689-0.259,0.689-0.662c0-0.416-0.239-0.634-0.638-0.634
				c-0.211,0-0.33,0.014-0.393,0.034V18.75z"/>
			<path fill="#FFFFFF" d="M28.756,16.711v4.597h-0.865v-4.597H28.756z"/>
			<path fill="#FFFFFF" d="M32.602,21.186c-0.154,0.088-0.519,0.198-0.979,0.198c-1.326,0-2.009-0.996-2.009-2.306
				c0-1.569,0.934-2.435,2.095-2.435c0.449,0,0.791,0.103,0.944,0.205l-0.182,0.819c-0.171-0.089-0.416-0.171-0.729-0.171
				c-0.684,0-1.219,0.498-1.219,1.521c0,0.92,0.456,1.5,1.225,1.5c0.267,0,0.552-0.062,0.729-0.15L32.602,21.186z"/>
			<path fill="#FFFFFF" d="M35.74,19.364h-1.412v1.091h1.577v0.853h-2.442v-4.597h2.362v0.853h-1.497v0.955h1.412V19.364z"/>
		</g>
	</g>
	<polygon fill="#599441" points="20.5,8.378 20.914,9.652 22.254,9.652 21.17,10.44 21.584,11.715 20.5,10.928 19.416,11.715 
		19.83,10.44 18.746,9.652 20.086,9.652 	"/>
	<polygon fill="#599441" points="20.5,25.41 20.914,26.686 22.254,26.686 21.17,27.473 21.584,28.747 20.5,27.959 19.416,28.747 
		19.83,27.473 18.746,26.686 20.086,26.686 	"/>
	<polygon fill="#599441" points="16.083,10.047 16.32,10.776 17.087,10.776 16.467,11.227 16.703,11.957 16.083,11.506 
		15.463,11.957 15.699,11.227 15.079,10.776 15.846,10.776 	"/>
	<polygon fill="#599441" points="24.417,10.047 24.654,10.776 25.421,10.776 24.801,11.227 25.037,11.957 24.417,11.506 
		23.797,11.957 24.033,11.227 23.413,10.776 24.18,10.776 	"/>
	<polygon fill="#599441" points="16.083,25.168 16.32,25.898 17.087,25.898 16.467,26.35 16.703,27.078 16.083,26.628 
		15.463,27.078 15.699,26.35 15.079,25.898 15.846,25.898 	"/>
	<polygon fill="#599441" points="24.417,25.168 24.654,25.898 25.421,25.898 24.801,26.35 25.037,27.078 24.417,26.628 
		23.797,27.078 24.033,26.35 23.413,25.898 24.18,25.898 	"/>
</g>
</svg>
